<ttFont>
          <CharString index="0">
            -99 -30 17 116 hvcurveto
            426 96 vlineto
            142 55 -108 -113 16 hvcurveto
            47 hlineto
            -10 125 -2 61 56 24 -1 26 32 vvcurveto
            40 1 50 6 69 9 callgsubr
            -86 -16 -47 -135 -144 hhcurveto
            -96 418 hlineto
            116 30 17 99 vhcurveto
            76 hlineto
            171 102 -83 -243 42 -1 callgsubr
            31 -2 47 49 vvcurveto
            48 4 100 10 98 vhcurveto
            -120 -6 -168 0 248 callgsubr
            -291 0 -213 hflex1
            return
          </CharString>
          <CharString index="1">
            -74 -22 callgsubr
            6 callsubr
            69 4 123 2 131 114 122 -2 74 hflex1
            41 vlineto
            -130 6 -24 21 149 vvcurveto
            return
          </CharString>
          <CharString index="2">
            145 callsubr
            105 callgsubr
            vhcurveto
            773 vlineto
            149 27 21 139 296 callsubr
            -76 -4 -125 -2 -123 -127 -124 2 -70 hflex1
            280 callgsubr
            -56 callgsubr
            -643 vlineto
            -263 28 -146 133 -106 vhcurveto
            -81 101 140 -23 128 hhcurveto
            208 136 74 117 70 hvcurveto
            64 107 20 149 178 vvcurveto
            543 vlineto
            198 23 54 130 18 vhcurveto
            endchar
          </CharString>
          <CharString index="3">
            -41 vlineto
            41 4 56 2 60 85 77 -2 93 -65 callgsubr
            -112 3 -70 28 108 vvcurveto
            54 17 73 39 100 vhcurveto
            55 142 rlineto
            445 hlineto
            123 -336 rlineto
            16 -41 8 -32 -24 vvcurveto
            -56 -46 -15 -98 179 callsubr
            68 4 117 2 127 112 118 -2 81 -65 callgsubr
            -39 2 -52 31 -38 98 rrcurveto
            -512 418 rmoveto
            -415 hlineto
            212 551 rlineto
            endchar
          </CharString>
          <CharString index="4">
            rmoveto
            hintmask 1010011000000000
            -240 -219 -116 -258 -228 170 -115 195 -124 hvcurveto
            180 -116 127 -97 -168 vvcurveto
            -153 -111 -76 -143 vhcurveto
            hintmask 1010100100000000
            283 callgsubr
            hintmask 0110100100000000
            -326 -2 -131 -6 -96 vhcurveto
            47 hlineto
            59 8 10 31 27 hhcurveto
            hintmask 1010011000000000
            16 21 -8 -21 33 hvcurveto
            -37 69 90 -39 170 hhcurveto
            275 233 129 270 222 -152 111 -194 129 hvcurveto
            -229 154 -125 67 165 vvcurveto
            130 94 79 131 vhcurveto
            hintmask 1010100100000000
            219 115 -223 -213 14 hvcurveto
            47 hlineto
            hintmask 1001100100000000
            288 4 98 7 81 vhcurveto
            hintmask 1001100010000000
            -47 hlineto
            -59 -9 -10 -31 -27 hhcurveto
            hintmask 1010100100000000
            260 callgsubr
            endchar
          </CharString>
          <CharString index="5">
            rmoveto
            -85 -78 2 4 -92 hvcurveto
            -41 vlineto
            113 -3 63 -45 -123 vvcurveto
            -60 -15 -78 -31 -100 vhcurveto
            -195 -620 -281 857 rlineto
            -14 41 -7 31 24 vvcurveto
            62 48 10 92 267 callsubr
            -65 -4 -110 -2 -120 -105 -112 244 callgsubr
            43 -3 40 -22 28 -85 106 -319 rcurveline
            -209 -609 -297 866 rlineto
            -12 34 -7 31 27 vvcurveto
            43 19 30 53 7 vhcurveto
            41 vlineto
            -54 -4 -89 -2 -109 -104 -120 2 -81 244 callsubr
            54 -30 36 -99 459 -1282 rcurveline
            22 1 23 1 25 25 25 -1 22 hflex1
            304 911 302 -911 rlineto
            22 1 23 1 25 25 25 -1 22 hflex1
            361 1170 47 155 73 72 callgsubr
          </CharString>
          <CharString index="6">
            rmoveto
            -63 callgsubr
            425 300 308 458 469 -290 273 -433 hvcurveto
            -9 -37 rmoveto
            217 175 -277 -436 -424 -148 -297 -229 -216 -175 277 436 424 147 297 229 hvcurveto
            endchar
          </CharString>
          <CharString index="7">
            4 callgsubr
            -96 callgsubr
            return
          </CharString>
          <CharString index="8">
            rmoveto
            -63 callgsubr
            176 102 62 71 100 hvcurveto
            168 callsubr
            hintmask 01101100
            29 13 -37 -84 8 hvcurveto
            47 hlineto
            -6 109 -2 147 260 vvcurveto
            -48 hlineto
            hintmask 10101100
            -19 -200 -25 -114 -106 -82 rrcurveto
            -66 -66 -99 -33 -90 hhcurveto
            -293 -123 333 367 362 114 343 294 97 94 -35 -66 68 hvcurveto
            106 -84 26 -99 22 -188 rrcurveto
            48 hlineto
            hintmask 10011100
            250 220 callgsubr
            105 vhcurveto
            253 callgsubr
            hintmask 10101100
            69 -90 -106 64 -180 hhcurveto
            endchar
          </CharString>
          <CharString index="9">
            rmoveto
            -67 callsubr
            -374 196 -174 276 227 134 165 154 49 vhcurveto
            -37 14 rlineto
            -136 -83 -104 -28 -82 hhcurveto
            -87 904 rmoveto
            100 43 -172 -200 -4 hvcurveto
            -321 hlineto
            265 17 73 107 92 hhcurveto
            endchar
          </CharString>
          <CharString index="10">
            -91 callgsubr
            213 6 126 callgsubr
            131 184 0 133 hflex1
            return
          </CharString>
          <CharString index="11">
            -55 -92 2 6 -63 hvcurveto
            -43 vlineto
            99 -8 61 -51 -113 vvcurveto
            -42 -8 -51 -19 -61 vhcurveto
            -130 -411 -266 782 rlineto
            -26 -2 -27 -1 -26 -24 -23 1 -23 hflex1
            -1 hlineto
            -222 -741 -185 580 rlineto
            -7 22 -4 19 14 vvcurveto
            58 54 3 75 vhcurveto
            43 vlineto
            -82 -7 -101 -6 -84 -114 -90 4 -87 173 callgsubr
            50 -7 -108 40 hvcurveto
            324 -906 295 callsubr
            23 22 22 -1 22 hflex1
            227 760 278 -760 295 callsubr
            22 22 23 -1 22 hflex1
            272 845 40 124 49 39 52 13 rlinecurve
            43 vlineto
            return
          </CharString>
          <CharString index="12">
            -70 callsubr
            114 -34 callsubr
            return
          </CharString>
          <CharString index="13">
            rmoveto
            -85 callsubr
            hintmask 00111101
            -190 -70 -98 -83 -148 vvcurveto
            -149 106 -84 153 115 117 51 115 70 vhcurveto
            -88 1 46 -78 150 hhcurveto
            hintmask 10011011
            104 68 25 50 62 hvcurveto
            -21 35 rlineto
            -18 -23 -23 -17 -29 hhcurveto
            -33 -11 25 66 hvcurveto
            557 vlineto
            143 -13 82 -60 62 vhcurveto
            hintmask 00111011
            68 -66 -102 24 -132 hhcurveto
            hintmask 01011101
            78 -888 rmoveto
            -61 -43 -45 -22 -50 hhcurveto
            -73 -55 46 113 123 67 67 72 53 hvcurveto
            69 43 39 27 19 31 rrcurveto
            endchar
          </CharString>
          <CharString index="14">
            1674 rmoveto
            18 -21 -25 8 -25 hhcurveto
            -37 -36 -17 -31 -25 hvcurveto
            -69 -82 -4 -106 -121 -219 22 -18 rcurveline
            181 166 99 37 66 81 rrcurveto
            22 27 10 30 27 vvcurveto
            31 -12 28 -25 20 vhcurveto
            return
          </CharString>
          <CharString index="15">
            220 callsubr
            -95 -50 -42 -97 -195 -158 14 -26 rcurveline
            229 87 106 -2 92 51 rrcurveto
            44 24 24 40 40 vvcurveto
            16 -4 16 -8 16 vhcurveto
            39 -20 -40 20 -42 hhcurveto
            -21 -22 -5 -11 -20 hvcurveto
            return
          </CharString>
          <CharString index="16">
            rmoveto
            -43 -4 -71 -2 -64 -74 -95 2 -53 hflex1
            -41 vlineto
            181 -18 18 -52 -225 vvcurveto
            -641 vlineto
            -792 977 rlineto
            -48 -4 -64 -2 -65 -64 -71 2 -43 3 callgsubr
            -922 vlineto
            -198 -23 -54 -131 -18 -36 callsubr
            43 4 71 2 64 74 95 -2 53 -65 callgsubr
            -181 18 -18 52 225 vvcurveto
            786 vlineto
            return
          </CharString>
          <CharString index="17">
            -70 callgsubr
            107 115 -12 callgsubr
            56 callgsubr
            endchar
          </CharString>
          <CharString index="18">
            vvcurveto
            -811 -95 callgsubr
            return
          </CharString>
          <CharString index="19">
            rmoveto
            41 vlineto
            -179 -6 -220 0 -185 -135 -189 0 -137 hflex1
            11 -124 4 -126 -61 vvcurveto
            -61 -2 -57 -4 -38 vhcurveto
            47 hlineto
            323 39 167 97 203 hhcurveto
            234 hlineto
            -714 -1362 rlineto
            -41 vlineto
            170 6 203 0 177 149 209 0 152 hflex1
            -13 123 -1 127 61 vvcurveto
            71 2 63 4 47 9 callgsubr
            -337 -36 -210 -108 -186 hhcurveto
            -225 hlineto
            endchar
          </CharString>
          <CharString index="20">
            rmoveto
            35 callsubr
            -131 -123 2 -69 hflex1
            -84 callgsubr
            -12 128 -2 132 64 vvcurveto
            70 2 63 4 47 9 callgsubr
            -273 -40 -144 -184 -189 hhcurveto
            -100 hlineto
            -108 -21 18 128 hvcurveto
            1040 vlineto
            149 27 21 139 6 vhcurveto
            return
          </CharString>
          <CharString index="21">
            rmoveto
            -85 -77 2 4 -93 hvcurveto
            -41 vlineto
            104 -3 67 -36 -97 vvcurveto
            -59 -25 -82 -56 -111 vhcurveto
            -159 -318 -312 598 rlineto
            -9 18 -4 15 12 vvcurveto
            53 73 8 82 vhcurveto
            43 vlineto
            -117 -6 -148 -4 -120 -94 -76 4 -72 173 callgsubr
            40 -23 -91 50 hvcurveto
            394 -729 rlineto
            -348 -95 callgsubr
            67 4 125 2 126 114 128 -2 73 -65 callgsubr
            -129 -46 callgsubr
            477 vlineto
            242 480 75 148 62 72 callgsubr
          </CharString>
          <CharString index="22">
            106 callgsubr
            -67 -39 -48 -57 -75 vvcurveto
            -90 56 -68 89 101 66 62 85 83 -48 53 -73 25 vhcurveto
            36 37 60 14 49 hhcurveto
            121 46 -76 -107 hvcurveto
            -160 vlineto
            -88 -118 -39 -151 -57 vhcurveto
            return
          </CharString>
          <CharString index="23">
            rmoveto
            -86 -120 -156 -124 -178 -75 10 -30 rcurveline
            146 31 156 54 85 47 102 -47 189 -54 178 -31 10 30 rcurveline
            -179 76 -157 124 -83 119 rrcurveto
            return
          </CharString>
          <CharString index="24">
            1749 rmoveto
            -84 -120 -154 -125 -174 -74 10 -30 rcurveline
            143 31 153 53 83 48 100 -48 186 -53 175 -31 10 30 rcurveline
            -175 76 -155 124 -81 119 rrcurveto
            return
          </CharString>
          <CharString index="25">
            rmoveto
            -25 -25 -32 -20 -31 hhcurveto
            -42 -25 26 80 -19 hvcurveto
            -43 183 -37 152 -131 48 -176 21 rlinecurve
            -21 3 -19 2 -20 2 rrcurveto
            369 37 103 163 145 vvcurveto
            189 -168 124 -379 vhcurveto
            -52 -138 -4 -136 62 callgsubr
            -18 -152 vvcurveto
            -811 vlineto
            hintmask 00111100
            99 callsubr
            123 132 -2 79 -65 callgsubr
            -52 callsubr
            352 68 vlineto
            111 61 -30 -160 32 hvcurveto
            59 -241 rlineto
            hintmask 01111110
            -93 23 75 -74 165 hhcurveto
            129 74 45 70 61 hvcurveto
            -752 1118 rmoveto
            182 64 -106 -190 -166 -45 -132 -219 hvcurveto
            -88 418 hlineto
            141 18 35 88 vhcurveto
            endchar
          </CharString>
          <CharString index="26">
            rmoveto
            -75 callgsubr
            250 callgsubr
            81 3 142 3 151 151 152 -3 87 -65 callgsubr
            -182 2 -37 24 167 vvcurveto
            1169 -18 callgsubr
            return
          </CharString>
          <CharString index="27">
            rmoveto
            -181 -6 -253 0 -179 -175 -249 0 -178 hflex1
            11 -111 4 -113 -54 vvcurveto
            -71 -2 -67 -4 -43 vhcurveto
            47 hlineto
            304 55 82 108 194 hhcurveto
            64 -960 hlineto
            -166 -35 -25 -172 -36 callgsubr
            66 4 170 2 122 115 180 -10 callsubr
            -172 6 -35 25 166 vvcurveto
            960 64 vlineto
            194 82 -108 -304 56 -1 callgsubr
            43 -3 67 71 vvcurveto
            54 5 177 callgsubr
            return
          </CharString>
          <CharString index="28">
            rmoveto
            -433 -308 -305 -466 -463 253 -274 478 123 113 46 58 100 hvcurveto
            hintmask 01110101
            -68 callsubr
            hintmask 10110101
            -50 -12 -30 -38 -27 vhcurveto
            -21 -31 -49 -19 -65 hhcurveto
            -253 -140 218 492 360 125 344 299 97 104 -37 -64 67 hvcurveto
            hintmask 10101110
            106 -86 29 -121 19 -164 rrcurveto
            47 hlineto
            250 220 callgsubr
            105 9 callgsubr
            -85 -8 -15 -39 -28 266 callgsubr
            -15 hvcurveto
            hintmask 10110110
            72 -94 -106 61 -186 hhcurveto
            endchar
          </CharString>
          <CharString index="29">
            102 24 63 callgsubr
            -29 -33 -81 vhcurveto
            -43 vlineto
            50 190 callgsubr
            100 118 -12 callgsubr
            -95 -36 -32 callsubr
            return
          </CharString>
          <CharString index="30">
            rmoveto
            -85 callsubr
            hintmask 00111010
            -190 -70 -98 -83 -148 vvcurveto
            -149 106 -84 153 115 117 51 115 70 vhcurveto
            -88 1 46 -78 150 hhcurveto
            hintmask 10010110
            104 68 25 50 62 hvcurveto
            -21 35 rlineto
            -18 -23 -23 -17 -29 hhcurveto
            -33 -11 25 66 hvcurveto
            557 vlineto
            143 -13 82 -60 62 vhcurveto
            hintmask 00110110
            68 -66 -102 24 -132 hhcurveto
            hintmask 01011010
            78 -888 rmoveto
            -61 -43 -45 -22 -50 hhcurveto
            -73 -55 46 113 123 67 67 72 53 hvcurveto
            69 43 39 27 19 31 rrcurveto
            endchar
          </CharString>
          <CharString index="31">
            109 -71 callgsubr
            return
          </CharString>
          <CharString index="32">
            -43 vlineto
            -69 callgsubr
            return
          </CharString>
          <CharString index="33">
            -483 -543 483 vlineto
            149 23 21 131 6 vhcurveto
            41 vlineto
            -106 callsubr
            492 543 -492 -95 callgsubr
            return
          </CharString>
          <CharString index="34">
            175 callgsubr
            hintmask 10001110
            185 vlineto
            hintmask 10010110
            -60 callgsubr
            hintmask 10100110
            -43 vlineto
            -67 callgsubr
            552 vlineto
            139 -19 75 -45 52 vhcurveto
            48 -42 -67 32 -117 hhcurveto
            endchar
          </CharString>
          <CharString index="35">
            99 32 -58 -123 hvcurveto
            -646 -42 callgsubr
            571 vlineto
            return
          </CharString>
          <CharString index="36">
            -43 callgsubr
            54 2 123 6 105 return
          </CharString>
          <CharString index="37">
            -6 -61 callgsubr
            return
          </CharString>
          <CharString index="38">
            rmoveto
            -97 -58 -51 -82 -85 57 -44 88 49 31 13 18 20 hvcurveto
            -10 -62 -58 -35 -96 -16 8 -41 74 callgsubr
            -68 60 -99 vhcurveto
            endchar
          </CharString>
          <CharString index="39">
            36 66 24 6 20 hhcurveto
            40 18 -70 -47 2 hvcurveto
            41 406 hlineto
            151 15 18 78 7 vhcurveto
            41 vlineto
            -62 -5 -98 -2 -115 -110 -156 2 -84 hflex1
            202 callgsubr
            -7 35 -29 -186 vvcurveto
            -201 vlineto
            return
          </CharString>
          <CharString index="40">
            -130 -137 111 285 33 1 34 3 30 hvcurveto
            573 hlineto
            321 -146 134 -239 -291 -210 -189 -380 return
          </CharString>
          <CharString index="41">
            17 35 41 19 26 hhcurveto
            29 10 -39 -37 4 hvcurveto
            41 340 hlineto
            152 13 18 79 296 callsubr
            -59 -4 -94 -2 -109 -107 -143 2 -88 hflex1
            -41 vlineto
            162 -6 32 -25 -166 vvcurveto
            -190 vlineto
            return
          </CharString>
          <CharString index="42">
            rmoveto
            hintmask 11011000
            119 59 82 59 94 vvcurveto
            112 -126 58 -148 -170 -131 -76 -118 -108 104 -83 92 -60 vhcurveto
            hintmask 11100100
            -144 -60 -100 -74 -121 vvcurveto
            -136 147 -68 174 206 149 93 137 102 -78 88 -176 102 vhcurveto
            hintmask 11011000
            -87 339 rmoveto
            81 43 -49 -90 -59 -16 -76 -53 -47 hvcurveto
            -83 46 -100 61 104 vvcurveto
            69 54 41 74 vhcurveto
            hintmask 11100100
            -820 vmoveto
            -117 -43 80 97 84 22 82 75 57 hvcurveto
            7 -4 rlineto
            117 -73 108 -62 -118 vvcurveto
            -93 -76 -50 -93 vhcurveto
            endchar
          </CharString>
          <CharString index="43">
            284 callsubr
            -25 callsubr
            4 callgsubr
            233 callsubr
            return
          </CharString>
          <CharString index="44">
            75 32 -29 -96 4 hvcurveto
            -391 -661 rlineto
            638 -21 callgsubr
            -71 -31 25 83 -7 hvcurveto
            390 662 rlineto
            -623 115 callgsubr
            51 2 111 6 104 100 119 -12 callgsubr
            -96 -35 79 callgsubr
            35 33 96 vhcurveto
            endchar
          </CharString>
          <CharString index="45">
            -9 -114 hhcurveto
            -41 -43 3 4 -43 hvcurveto
            return
          </CharString>
          <CharString index="46">
            -52 callgsubr
            54 26 callsubr
            return
          </CharString>
          <CharString index="47">
            129 -6 24 -56 callgsubr
            return
          </CharString>
          <CharString index="48">
            1683 rmoveto
            6 -15 -15 3 -16 hhcurveto
            -47 -45 -29 -51 -19 hvcurveto
            -34 -87 32 -76 -41 -218 28 -10 rcurveline
            117 186 69 37 38 84 rrcurveto
            8 20 4 19 18 vvcurveto
            44 -24 37 -40 17 vhcurveto
            return
          </CharString>
          <CharString index="49">
            1921 rmoveto
            -146 -31 -156 -54 -85 -47 -101 47 -189 54 -179 31 -10 -30 rcurveline
            179 -76 158 -124 83 -119 rrcurveto
            37 hlineto
            85 120 156 124 178 75 rrcurveto
            return
          </CharString>
          <CharString index="50">
            rmoveto
            265 341 291 461 399 -287 164 -364 -558 -443 -524 -551 -434 277 -189 388 183 153 49 72 103 hvcurveto
            -15 27 rlineto
            -80 -133 -141 -31 -148 hhcurveto
            -359 -267 168 422 555 454 479 508 328 281 -145 -379 -397 -264 -238 -167 -49 hvcurveto
            -3 -10 -9 -2 -7 hhcurveto
            -24 -9 17 30 hvcurveto
            3 0 3 4 vvcurveto
            1 18 4 22 6 25 162 739 rcurveline
            return
          </CharString>
          <CharString index="51">
            rmoveto
            221 callsubr
            -13 -13 vvcurveto
            -15 -1 -15 -4 -16 vhcurveto
            -13 -72 -65 -75 -77 -34 19 -37 rcurveline
            146 68 68 124 136 vvcurveto
            64 -16 65 -28 42 vhcurveto
            198 callsubr
            return
          </CharString>
          <CharString index="52">
            1832 rmoveto
            6 -16 -16 3 -15 hhcurveto
            -44 -37 -25 -44 -19 hvcurveto
            -30 -74 23 -83 -28 -171 27 -12 rcurveline
            105 138 75 41 31 75 rrcurveto
            7 17 4 16 17 vvcurveto
            41 -23 36 -44 19 vhcurveto
            return
          </CharString>
          <CharString index="53">
            -16 callgsubr
            -53 callsubr
            return
          </CharString>
          <CharString index="54">
            21 149 vvcurveto
            return
          </CharString>
          <CharString index="55">
            -130 -46 callgsubr
            return
          </CharString>
          <CharString index="56">
            rmoveto
            35 callsubr
            -126 -118 2 -67 hflex1
            -41 vlineto
            -60 callsubr
            -936 vlineto
            -283 -2 -105 -37 -106 vhcurveto
            -85 -31 -73 -62 -103 hhcurveto
            -21 -35 3 12 -18 hvcurveto
            70 22 35 52 60 vvcurveto
            88 -62 47 -93 -98 -66 -55 -83 -63 29 -50 72 -36 vhcurveto
            -26 52 81 -12 73 hhcurveto
            277 186 145 189 55 hvcurveto
            32 111 3 166 150 37 0 36 34 vvcurveto
            750 vlineto
            149 23 21 143 callgsubr
            endchar
          </CharString>
          <CharString index="57">
            -149 -23 -21 return
          </CharString>
          <CharString index="58">
            vvcurveto
            -151 -41 151 -827 hlineto
            -114 -39 -33 -104 vhcurveto
            -43 vlineto
            return
          </CharString>
          <CharString index="59">
            152 0 43 1365 43 -42 41 hstemhm
            7 1433 hintmask 11010000
            828 847 rmoveto
            262 348 rlineto
            hintmask 10110000
            75 101 93 87 90 26 rrcurveto
            41 vlineto
            -43 -4 -68 -2 -78 -68 -112 2 -77 hflex1
            -41 vlineto
            95 -6 54 -38 -69 vvcurveto
            -52 -30 -70 -67 -85 vhcurveto
            -151 -204 rlineto
            hintmask 11010000
            -305 445 rlineto
            -11 16 -5 12 11 vvcurveto
            28 40 11 91 vhcurveto
            43 vlineto
            -69 -3 -124 -5 -121 -113 -123 6 -56 -9 callsubr
            56 -4 21 -20 54 -78 441 -648 rcurveline
            -272 -367 -103 -135 -98 -84 -95 -31 rlinecurve
            -41 vlineto
            43 4 67 2 78 68 178 87 callsubr
            -108 6 -67 48 85 vvcurveto
            55 29 72 65 87 vhcurveto
            164 224 344 -505 rlineto
            10 -15 5 -11 -10 vvcurveto
            -27 -43 -7 -92 vhcurveto
            -43 vlineto
            63 220 callgsubr
            201 callsubr
            117 -6 54 -27 callsubr
            -56 4 -21 20 -54 78 rrcurveto
            endchar
          </CharString>
          <CharString index="60">
            28 callsubr
            412 314 412 314 vstem
            2142 1245 rmoveto
            69 callsubr
            -106 -114 2 -69 204 callgsubr
            -140 vhcurveto
            -80 hlineto
            -130 -36 209 callgsubr
            811 vlineto
            150 19 20 114 296 callsubr
            -63 -4 -110 -2 -118 -106 -113 2 -70 204 callgsubr
            -139 vhcurveto
            -81 hlineto
            -139 -27 209 callgsubr
            811 vlineto
            150 20 20 113 296 callsubr
            -67 -4 -109 -2 -100 -131 -123 226 callsubr
            233 callsubr
            -811 vlineto
            -149 -25 70 callgsubr
            67 4 118 2 126 127 139 -6 101 hflex1
            107 142 6 122 109 146 94 hflex
            return
          </CharString>
          <CharString index="61">
            56 0 43 1160 43 -42 41 hstemhm
            17 1311 hintmask 11010000
            783 729 rmoveto
            251 306 rlineto
            hintmask 10110000
            67 81 84 66 73 22 rrcurveto
            41 vlineto
            -40 -4 -60 -2 -74 -66 -112 2 -78 hflex1
            -41 vlineto
            87 -5 46 -42 -63 vvcurveto
            -47 -25 -58 -52 -62 vhcurveto
            -128 -159 rlineto
            hintmask 11010000
            -262 366 rlineto
            -10 14 -5 12 9 vvcurveto
            26 43 8 85 vhcurveto
            43 vlineto
            -63 -2 -125 -5 -138 -101 -113 5 -50 -9 callsubr
            53 -4 20 -21 54 -77 389 -545 rcurveline
            -255 -313 -64 -77 -107 -89 -87 -36 rlinecurve
            -41 vlineto
            49 3 60 3 66 65 162 87 callsubr
            -105 6 -67 43 73 vvcurveto
            41 21 50 48 59 vhcurveto
            164 204 289 -404 rlineto
            11 -15 5 -12 -9 vvcurveto
            -27 -43 -7 -85 vhcurveto
            -43 vlineto
            62 2 138 5 125 101 113 -5 51 -27 callsubr
            -51 6 -24 21 -52 75 rrcurveto
            endchar
          </CharString>
          <CharString index="62">
            rmoveto
            -31 -27 -21 -16 -34 hhcurveto
            -52 -22 37 110 -22 hvcurveto
            -60 274 -44 199 -157 68 -252 15 rlinecurve
            379 444 110 126 99 50 89 19 rlinecurve
            40 vlineto
            -49 -4 -64 -2 -81 -120 -82 2 -99 hflex1
            -40 vlineto
            94 -3 56 -39 -68 vvcurveto
            -49 -30 271 callgsubr
            -84 -60 -113 -5 rlinecurve
            459 vlineto
            149 23 21 131 6 vhcurveto
            41 vlineto
            -74 -4 -122 -2 -114 -131 -123 2 -69 hflex1
            81 callsubr
            522 28 vlineto
            196 50 -71 -163 32 hvcurveto
            54 -312 rlineto
            hintmask 01111100
            -173 32 98 -49 147 hhcurveto
            121 80 38 81 71 hvcurveto
            endchar
          </CharString>
          <CharString index="63">
            1914 rmoveto
            -74 -59 -44 -111 -121 -140 19 -23 rcurveline
            163 290 callsubr
            37 27 19 35 35 vvcurveto
            21 -7 21 -14 20 vhcurveto
            31 -22 -34 17 -37 hhcurveto
            -25 -26 -8 -18 -24 hvcurveto
            433 hmoveto
            -75 -59 -43 -111 -122 -140 20 -23 rcurveline
            162 290 callsubr
            38 28 19 35 35 vvcurveto
            21 -7 21 -14 19 vhcurveto
            31 -22 -35 17 -36 hhcurveto
            -26 -26 -8 -18 -23 hvcurveto
            return
          </CharString>
          <CharString index="64">
            rmoveto
            -162 -88 -78 -86 -46 hvcurveto
            -26 callsubr
            hintmask 11101000
            77 -6 48 -63 -86 vvcurveto
            -154 -164 -105 -219 -22 vhcurveto
            -35 vlineto
            265 12 304 95 199 vvcurveto
            122 -127 71 -148 -6 vhcurveto
            hintmask 11110000
            147 30 93 69 95 vvcurveto
            95 -101 53 -133 vhcurveto
            endchar
          </CharString>
          <CharString index="65">
            -41 vlineto
            26 callgsubr
            return
          </CharString>
          <CharString index="66">
            112 0 47 688 35 639 35 hstemhm
            -3 callsubr
            328 332 -234 340 hintmask 11110100
            799 766 rmoveto
            hintmask 11111000
            286 53 123 162 145 vvcurveto
            189 -168 133 -338 vhcurveto
            120 callgsubr
            69 4 125 2 121 174 127 -6 64 hflex1
            hintmask 11110100
            351 214 139 258 166 -132 170 -383 29 hvcurveto
            -124 647 rmoveto
            hintmask 11111000
            145 56 -104 -201 -178 -47 -156 -193 hvcurveto
            -88 463 hlineto
            hintmask 11110100
            141 22 35 105 vhcurveto
            14 -1362 rmoveto
            -117 -24 27 143 hvcurveto
            518 86 vlineto
            243 97 -121 -208 -230 -85 -129 -200 hvcurveto
            endchar
          </CharString>
          <CharString index="67">
            rmoveto
            hintmask 10011100
            512 1038 rlineto
            hintmask 01101100
            -6 -135 -150 -5 -141 hhcurveto
            -133 -136 2 7 -124 hvcurveto
            6 -86 2 -119 -201 vvcurveto
            43 hlineto
            277 21 133 90 165 hhcurveto
            115 hlineto
            -512 -1038 rlineto
            hintmask 10101100
            6 135 150 4 141 hhcurveto
            133 136 -2 -6 124 hvcurveto
            -6 85 -2 120 200 vvcurveto
            -43 hlineto
            -277 -21 -149 -89 -157 hhcurveto
            endchar
          </CharString>
          <CharString index="68">
            67 2 61 4 44 9 callgsubr
            -330 -51 -126 -106 -183 hhcurveto
            -101 hlineto
            return
          </CharString>
          <CharString index="69">
            1782 rmoveto
            -74 224 callsubr
            194 99 108 19 75 54 rrcurveto
            37 27 19 35 35 vvcurveto
            21 -7 21 -14 20 vhcurveto
            31 -22 -34 17 -37 hhcurveto
            -25 -26 -8 -18 -24 hvcurveto
            433 hmoveto
            -75 224 callsubr
            195 99 107 19 75 54 rrcurveto
            38 28 19 35 35 vvcurveto
            21 -7 21 -14 19 vhcurveto
            31 -22 -35 17 -36 hhcurveto
            -26 -26 -8 -18 -23 hvcurveto
            return
          </CharString>
          <CharString index="70">
            1511 rmoveto
            22 27 10 30 27 vvcurveto
            31 -12 28 -25 20 vhcurveto
            18 -21 -25 8 -25 hhcurveto
            -37 -36 -17 -31 -25 hvcurveto
            -69 -82 -4 -106 -121 -219 22 -18 rcurveline
            181 166 99 37 66 81 rrcurveto
            return
          </CharString>
          <CharString index="71">
            vhcurveto
            -41 vlineto
            return
          </CharString>
          <CharString index="72">
            172 callsubr
            27 -52 -225 vvcurveto
            -541 vlineto
            -311 -84 -219 -289 return
          </CharString>
          <CharString index="73">
            122 -10 callsubr
            return
          </CharString>
          <CharString index="74">
            67 0 47 586 35 536 35 57 callgsubr
            299 319 -221 328 hintmask 11110100
            791 668 rmoveto
            hintmask 11111000
            267 57 97 104 134 vvcurveto
            176 -149 104 -336 vhcurveto
            -52 -138 -4 -136 62 callgsubr
            -18 -152 vvcurveto
            -811 97 callgsubr
            176 127 -6 65 hflex1
            hintmask 11110100
            353 192 127 209 156 -105 133 -366 39 hvcurveto
            -148 540 rmoveto
            hintmask 11111000
            139 54 -92 -172 -154 -45 -118 -186 hvcurveto
            -68 360 hlineto
            hintmask 11110100
            141 18 35 88 vhcurveto
            3 -1157 rmoveto
            -91 -18 27 143 hvcurveto
            416 102 vlineto
            212 83 -105 -184 -192 -86 -105 -202 hvcurveto
            endchar
          </CharString>
          <CharString index="75">
            33 114 hvcurveto
            return
          </CharString>
          <CharString index="76">
            rmoveto
            -96 -85 -32 -41 -54 hvcurveto
            24 218 rlineto
            316 hlineto
            28 26 0 -6 24 hvcurveto
            1 66 7 68 21 91 -35 6 rcurveline
            -45 -18 -13 -24 -65 hhcurveto
            -234 hlineto
            -28 -29 2 4 -21 hvcurveto
            -43 -406 33 -14 rlineto
            32 37 59 25 67 hhcurveto
            100 38 -57 -80 -173 -166 -88 -204 -23 hvcurveto
            -35 vlineto
            270 13 299 108 207 vvcurveto
            97 -82 87 -177 vhcurveto
            endchar
          </CharString>
          <CharString index="77">
            544 0 41 -30 -21 1214 41 hstemhm
            227 47 977 326 hintmask 10111000
            1743 1245 rmoveto
            -4 -73 -123 -2 -113 hhcurveto
            -183 hlineto
            -342 -810 -339 816 rlineto
            -51 -4 -64 -2 -68 -124 -129 2 -73 hflex1
            -41 vlineto
            140 -6 26 233 callsubr
            -754 vlineto
            -174 -23 -41 -130 -18 -36 callsubr
            42 4 71 2 65 84 89 -2 60 -65 callgsubr
            -177 18 -34 41 174 vvcurveto
            840 vlineto
            hintmask 01111000
            476 -1124 rlineto
            32 hlineto
            469 1126 rlineto
            -899 256 callgsubr
            75 4 133 2 141 113 123 -2 73 151 callgsubr
            811 vlineto
            150 27 20 139 6 vhcurveto
            endchar
          </CharString>
          <CharString index="78">
            249 callsubr
            -98 -99 72 -60 115 249 callgsubr
            99 98 -73 60 -113 hvcurveto
            return
          </CharString>
          <CharString index="79">
            -35 -371 43 299 56 973 88 -73 37 6 -20 43 -20 hstemhm
            171 295 375 309 hintmask 11100011
            784 1088 rmoveto
            -145 -116 -69 -130 -57 hvcurveto
            hintmask 11000111
            192 vlineto
            hintmask 11001011
            -21 274 callsubr
            hintmask 11010011
            -43 vlineto
            99 32 -57 -123 hvcurveto
            -1023 vlineto
            -109 -33 -31 -90 265 callsubr
            107 7 100 139 136 -7 69 -27 callsubr
            -115 -69 33 127 hvcurveto
            205 vlineto
            -43 51 75 -23 84 hhcurveto
            287 187 208 398 hvcurveto
            hintmask 11100011
            341 -158 170 -208 vhcurveto
            -188 -1061 rmoveto
            -55 -45 20 35 -30 hvcurveto
            737 vlineto
            116 25 83 65 90 hhcurveto
            107 70 134 callsubr
          </CharString>
          <CharString index="80">
            hflex1
            43 vlineto
            return
          </CharString>
          <CharString index="81">
            30 -16 rlineto
            65 41 65 38 74 hhcurveto
            82 48 -47 -65 -43 -20 -69 -83 -39 hvcurveto
            -49 2 -41 -2 -28 vvcurveto
            -15 10 -10 22 23 21 14 15 31 vhcurveto
            return
          </CharString>
          <CharString index="82">
            35 callsubr
            41 callsubr
            return
          </CharString>
          <CharString index="83">
            1697 rmoveto
            -55 -72 -135 -70 -217 hhcurveto
            -217 -135 69 55 -71 hvcurveto
            -26 -22 rlineto
            -124 57 145 -150 247 hhcurveto
            246 146 150 124 56 hvcurveto
            return
          </CharString>
          <CharString index="84">
            1614 rmoveto
            -68 -61 -107 -80 -189 hhcurveto
            -188 -108 80 68 -60 hvcurveto
            -35 -19 rlineto
            -149 50 116 -174 225 hhcurveto
            226 115 174 149 50 hvcurveto
            return
          </CharString>
          <CharString index="85">
            vstem
            745 723 rmoveto
            132 137 85 85 85 55 86 19 rlinecurve
            41 vlineto
            -48 -4 -114 -3 -78 -63 -101 3 -76 hflex1
            -41 vlineto
            91 -5 68 -40 -64 vvcurveto
            -35 -21 -42 -48 -47 vhcurveto
            -155 -152 -34 -34 -38 -13 -52 -4 rlinecurve
            1020 vlineto
            148 callgsubr
            -40 202 callsubr
            -36 -33 -95 vhcurveto
            -43 vlineto
            54 2 298 callgsubr
            103 112 -6 50 -27 callsubr
            -89 -34 -32 callsubr
            352 vlineto
            45 -2 27 -13 29 -48 203 -366 rcurveline
            6 -12 4 -10 -10 vvcurveto
            -23 -22 -15 -40 265 callsubr
            113 6 101 81 93 -6 41 -27 callsubr
            -48 16 -27 41 -32 50 rrcurveto
            return
          </CharString>
          <CharString index="86">
            rmoveto
            hintmask 10110110
            -186 -166 -100 -182 -165 123 -93 134 -105 hvcurveto
            118 -92 89 -67 -120 vvcurveto
            -105 -73 -41 -71 vhcurveto
            hintmask 10111001
            -172 -79 155 222 -25 hvcurveto
            -44 hlineto
            hintmask 01111001
            51 callgsubr
            hintmask 10111010
            44 10 17 29 23 hhcurveto
            3 3 -1 -1 3 hvcurveto
            29 -9 29 -15 37 -19 rrcurveto
            -25 46 64 -18 82 hhcurveto
            211 177 117 187 162 -108 88 -137 101 hvcurveto
            hintmask 10110101
            -126 94 -126 68 123 vvcurveto
            84 60 48 79 175 67 -166 -151 21 vhcurveto
            43 hlineto
            182 2 100 7 78 vhcurveto
            -44 hlineto
            -51 -7 -17 -24 -24 hhcurveto
            -11 -12 5 9 -14 hvcurveto
            hintmask 10111001
            26 -40 -90 37 -115 hhcurveto
            endchar
          </CharString>
          <CharString index="87">
            1432 rmoveto
            185 callsubr
            -85 -70 -72 -82 -85 70 -69 85 229 callsubr
            82 73 69 188 callsubr
            38 callgsubr
            -69 85 hvcurveto
            return
          </CharString>
          <CharString index="88">
            1569 rmoveto
            185 callgsubr
            -85 -70 -73 -82 -85 70 -69 85 229 callsubr
            82 73 69 85 82 -73 73 -82 186 callgsubr
            hvcurveto
            return
          </CharString>
          <CharString index="89">
            -52 -136 -4 -134 hhcurveto
            -115 -127 2 4 -69 hvcurveto
            -41 vlineto
            -60 callsubr
            -1016 vlineto
            return
          </CharString>
          <CharString index="90">
            rmoveto
            -74 -22 callgsubr
            -5 callgsubr
            -69 hflex1
            -41 vlineto
            hintmask 11010000
            10 callgsubr
          </CharString>
          <CharString index="91">
            327 0 37 672 41 663 37 hstem
            223 326 610 340 vstem
            703 144 callgsubr
            -483 -153 -41 153 -492 1 callgsubr
            -1413 vmoveto
            -127 -27 33 143 hvcurveto
            496 254 41 -254 487 vlineto
            141 27 35 125 330 128 -221 -459 -446 -111 -250 -345 vhcurveto
            endchar
          </CharString>
          <CharString index="92">
            rmoveto
            -31 -26 -22 -16 -35 hhcurveto
            -51 -23 38 109 -23 hvcurveto
            -46 211 -36 170 -109 79 -248 21 rlinecurve
            -1 hlineto
            359 41 101 189 166 vvcurveto
            225 -186 131 -381 15 callgsubr
            return
          </CharString>
          <CharString index="93">
            1532 rmoveto
            100 -48 186 -53 175 -31 10 30 rcurveline
            -175 76 -155 124 -81 119 rrcurveto
            -37 hlineto
            -84 -120 -154 -125 -174 -74 10 -30 rcurveline
            143 31 153 53 83 48 rrcurveto
            return
          </CharString>
          <CharString index="94">
            811 -47 callgsubr
            return
          </CharString>
          <CharString index="95">
            -64 -82 -7 -57 -110 -82 15 -86 hhcurveto
            -117 -122 -32 -80 -92 hvcurveto
            -106 -91 -43 -135 -206 -8 callsubr
            return
          </CharString>
          <CharString index="96">
            -22 -2 -25 -1 -24 -25 -24 1 -22 hflex1
            -466 -1198 return
          </CharString>
          <CharString index="97">
            -2 39 callsubr
            return
          </CharString>
          <CharString index="98">
            hflex1
            -43 vlineto
            return
          </CharString>
          <CharString index="99">
            -48 callgsubr
            216 41 -216 return
          </CharString>
          <CharString index="100">
            1245 rmoveto
            -28 callgsubr
            -24 -20 -12 -28 -30 vvcurveto
            -28 10 -30 22 -27 vhcurveto
            65 -81 100 -37 180 -166 rrcurveto
            return
          </CharString>
          <CharString index="101">
            888 -1126 rlineto
            20 1 18 0 18 17 17 0 15 hflex1
            1143 vlineto
            198 23 54 131 18 vhcurveto
            return
          </CharString>
          <CharString index="102">
            2 callsubr
            -149 return
          </CharString>
          <CharString index="103">
            rmoveto
            148 callgsubr
            -40 183 callsubr
            -1167 -54 callgsubr
            -30 166 callsubr
            91 98 113 71 callgsubr
            -144 -123 -51 228 callsubr
            endchar
          </CharString>
          <CharString index="104">
            222 326 return
          </CharString>
          <CharString index="105">
            819 -1018 rlineto
            18 1 18 0 19 18 18 0 18 hflex1
            975 vlineto
            174 23 41 130 18 vhcurveto
            return
          </CharString>
          <CharString index="106">
            rmoveto
            -245 -158 -147 -195 -199 165 -124 222 241 162 147 197 194 -160 127 -227 hvcurveto
            -9 -41 rmoveto
            104 92 -80 -206 -188 -78 -109 -114 -106 -91 81 205 189 77 108 116 hvcurveto
            endchar
          </CharString>
          <CharString index="107">
            rmoveto
            -2 -115 -130 0 -114 hhcurveto
            hintmask 11010000
            -68 -109 -4 -120 -13 -12 0 -12 hhcurveto
            hintmask 10110000
            -104 -110 4 2 -95 hvcurveto
            280 callgsubr
            1 callsubr
            835 vlineto
            hintmask 11011000
            115 29 19 89 vhcurveto
            21 hlineto
            194 102 -109 -311 44 -1 callgsubr
            44 -2 59 65 vvcurveto
            hintmask 10111000
            59 4 121 11 119 vhcurveto
            endchar
          </CharString>
          <CharString index="108">
            -96 callgsubr
            70 4 123 2 131 135 143 280 callsubr
            -169 6 -50 29 153 vvcurveto
            return
          </CharString>
          <CharString index="109">
            296 callsubr
            -74 -22 callgsubr
            -5 callgsubr
            -69 hflex1
            -41 vlineto
            -60 callsubr
            -1016 vlineto
            return
          </CharString>
          <CharString index="110">
            rmoveto
            -158 -138 -124 -194 -19 hvcurveto
            36 -8 rlineto
            105 42 75 38 92 208 141 -182 220 hhcurveto
            hintmask 10100000
            158 138 124 194 19 hvcurveto
            -36 8 rlineto
            -106 -42 -75 -38 -92 hhcurveto
            hintmask 01100000
            -208 -141 183 -220 hhcurveto
            endchar
          </CharString>
          <CharString index="111">
            rmoveto
            -62 callgsubr
            return
          </CharString>
          <CharString index="112">
            1248 rmoveto
            82 73 70 188 callsubr
            38 callgsubr
            -70 85 hvcurveto
            466 hmoveto
            82 73 70 188 callsubr
            38 callgsubr
            -70 85 hvcurveto
            return
          </CharString>
          <CharString index="113">
            -5 callgsubr
            -69 hflex1
            -42 callsubr
            return
          </CharString>
          <CharString index="114">
            224 313 return
          </CharString>
          <CharString index="115">
            -118 7 -52 -7 callgsubr
            return
          </CharString>
          <CharString index="116">
            11 callsubr
            endchar
          </CharString>
          <CharString index="117">
            rmoveto
            -82 -142 -4 -2 -98 hvcurveto
            -21 -22 -1 -21 hhcurveto
            -96 -95 4 3 -56 hvcurveto
            -41 vlineto
            129 -6 24 -21 -149 vvcurveto
            -1016 1 callgsubr
            -2 -37 rmoveto
            330 128 -221 -459 -446 -111 -250 -345 -127 -27 33 143 hvcurveto
            1024 vlineto
            141 27 35 125 vhcurveto
            endchar
          </CharString>
          <CharString index="118">
            129 -6 25 -20 -150 vvcurveto
            -811 vlineto
            48 callsubr
            -13 callsubr
            return
          </CharString>
          <CharString index="119">
            23 18 rcurveline
            -28 callgsubr
            return
          </CharString>
          <CharString index="120">
            789 rmoveto
            85 52 -70 -219 -219 -52 -70 -85 -85 -52 70 219 219 52 70 85 hvcurveto
            return
          </CharString>
          <CharString index="121">
            714 1450 -87 callsubr
            return
          </CharString>
          <CharString index="122">
            1892 rmoveto
            -124 -112 -87 -188 -38 hvcurveto
            29 -11 rlineto
            82 46 57 30 67 162 77 -146 193 hhcurveto
            return
          </CharString>
          <CharString index="123">
            rmoveto
            -46 -18 -12 -24 -66 hhcurveto
            -29 484 -43 hlineto
            -505 -559 rlineto
            -43 401 -240 147 240 54 vlineto
            26 27 247 callgsubr
            40 8 90 18 58 rrcurveto
            -307 -64 rmoveto
            -289 hlineto
            289 319 rlineto
            endchar
          </CharString>
          <CharString index="124">
            -71 -4 -136 -2 -75 -130 -55 6 -117 hflex1
            -104 0 -1 -5 -65 -56 -84 1 -54 hflex1
            -41 vlineto
            133 -5 35 -22 -104 vvcurveto
            -14 -1 -15 -1 -16 vhcurveto
            -455 -29 -33 -563 -290 hhcurveto
            -23 -18 4 7 -14 hvcurveto
            94 24 69 69 90 vvcurveto
            86 -61 47 -88 -106 -82 -69 -105 -119 103 -73 121 365 0 632 425 38 vhcurveto
            149 13 5 27 104 hhcurveto
            26 hlineto
            102 19 -24 -152 hvcurveto
            -811 vlineto
            return
          </CharString>
          <CharString index="125">
            10 23 35 4 22 hhcurveto
            43 26 -16 -37 -63 -82 -21 -68 -37 -36 6 3 -17 hvcurveto
            -11 -37 rlineto
            -15 42 62 -10 75 hhcurveto
            151 136 50 117 return
          </CharString>
          <CharString index="126">
            rmoveto
            -11 callsubr
            return
          </CharString>
          <CharString index="127">
            48 -42 -66 264 callsubr
            247 callsubr
            348 325 41 -325 459 76 callgsubr
            -122 hvcurveto
            -214 -145 -41 145 -912 55 callgsubr
            55 2 123 6 105 250 callsubr
            428 293 callsubr
            112 102 25 -69 -103 vhcurveto
            return
          </CharString>
          <CharString index="128">
            83 -29 54 -4 -21 1221 281 callsubr
            87 328 756 47 -25 39 hintmask 10101100
            return
          </CharString>
          <CharString index="129">
            rmoveto
            hintmask 10011110
            512 1038 rlineto
            hintmask 01101110
            -6 -135 -150 -5 -141 hhcurveto
            -133 -136 2 7 -124 hvcurveto
            6 -86 2 -119 -201 vvcurveto
            43 hlineto
            277 21 133 90 165 hhcurveto
            115 hlineto
            -512 -1038 rlineto
            hintmask 10101110
            6 135 150 4 141 hhcurveto
            133 136 -2 -6 124 hvcurveto
            -6 85 -2 120 200 vvcurveto
            -43 hlineto
            -277 -21 -149 -89 -157 hhcurveto
            endchar
          </CharString>
          <CharString index="130">
            5 -1401 rmoveto
            -123 -93 60 114 48 24 70 49 46 hvcurveto
            341 hlineto
            91 28 -29 -53 -158 -150 -98 -167 hvcurveto
            endchar
          </CharString>
          <CharString index="131">
            35 0 46 callgsubr
            hstemhm
            222 326 561 41 hintmask 11101100
            return
          </CharString>
          <CharString index="132">
            1610 rmoveto
            -110 -101 -82 -203 -45 hvcurveto
            28 -14 rlineto
            78 47 54 32 57 hhcurveto
            return
          </CharString>
          <CharString index="133">
            2 123 6 105 37 callsubr
            return
          </CharString>
          <CharString index="134">
            rmoveto
            -63 0 -106 -9 -100 -64 callgsubr
            52 2 110 6 104 142 139 -6 71 -27 callsubr
            -120 246 callsubr
            681 vlineto
            93 25 30 63 vhcurveto
            36 hlineto
            116 82 -105 -278 51 43 callsubr
            52 54 vvcurveto
            57 4 114 10 116 vhcurveto
            endchar
          </CharString>
          <CharString index="135">
            0 41 1163 101 callgsubr
            return
          </CharString>
          <CharString index="136">
            -48 callgsubr
            175 callsubr
            -646 284 callgsubr
            121 6 109 hhcurveto
            109 121 -6 -2 55 hvcurveto
            43 vlineto
            -104 -40 -32 callsubr
            return
          </CharString>
          <CharString index="137">
            -110 -78 -201 13 -134 vvcurveto
            -93 134 -81 306 402 188 225 200 170 -127 52 -150 vhcurveto
            return
          </CharString>
          <CharString index="138">
            125 callsubr
            -43 vlineto
            99 32 -58 return
          </CharString>
          <CharString index="139">
            rmoveto
            -86 -77 2 4 -93 hvcurveto
            -41 vlineto
            105 -3 69 -36 -100 vvcurveto
            -59 -24 -81 -54 -109 vhcurveto
            -208 -418 -362 642 rlineto
            -16 34 -7 28 22 vvcurveto
            57 48 20 57 2 vhcurveto
            42 vlineto
            -72 -5 -160 -1 -95 -83 -134 2 -54 hflex1
            -42 vlineto
            40 -5 43 -30 52 -89 578 -1014 rcurveline
            -48 -99 rlineto
            -102 -49 -56 -57 -80 hhcurveto
            -17 -15 2 5 -8 hvcurveto
            return
          </CharString>
          <CharString index="140">
            115 33 33 89 263 callgsubr
            -102 -103 -126 7 -54 182 callsubr
            118 6 103 102 121 -6 52 308 callgsubr
            336 vlineto
            11 11 1 10 hhcurveto
            88 60 -24 -50 40 hvcurveto
            58 -72 33 -137 15 -56 rrcurveto
            return
          </CharString>
          <CharString index="141">
            -230 -29 169 493 39 372 44 return
          </CharString>
          <CharString index="142">
            -76 -4 -127 -2 -119 return
          </CharString>
          <CharString index="143">
            113 -87 -271 43 69 callgsubr
            return
          </CharString>
          <CharString index="144">
            80 callgsubr
            43 vlineto
            return
          </CharString>
          <CharString index="145">
            220 callsubr
            -107 -67 -59 -99 -99 67 -59 107 106 68 59 99 99 -68 59 -106 hvcurveto
            return
          </CharString>
          <CharString index="146">
            74 -65 callgsubr
            return
          </CharString>
          <CharString index="147">
            63 callsubr
            hstem
            86 142 callgsubr
            vstem
            return
          </CharString>
          <CharString index="148">
            -121 -113 2 -65 hflex1
            -41 vlineto
            return
          </CharString>
          <CharString index="149">
            140 callgsubr
            -29 29 rlineto
            -30 -29 -54 -25 -48 hhcurveto
            -55 -29 28 55 return
          </CharString>
          <CharString index="150">
            -1 callgsubr
            33 -2 return
          </CharString>
          <CharString index="151">
            259 callsubr
            20 21 113 296 callsubr
            -69 -4 -114 -2 -106 31 callgsubr
            67 4 118 2 126 132 144 -6 return
          </CharString>
          <CharString index="152">
            -67 -4 -118 -2 291 callgsubr
            -76 3 callgsubr
            return
          </CharString>
          <CharString index="153">
            1016 vlineto
            149 return
          </CharString>
          <CharString index="154">
            -330 99 rmoveto
            -54 -31 43 127 284 145 301 133 63 29 -65 -64 hvcurveto
            -64 -316 rlineto
            -198 -61 -76 -112 -84 hhcurveto
            endchar
          </CharString>
          <CharString index="155">
            -97 callgsubr
            67 4 124 2 126 -76 callsubr
            return
          </CharString>
          <CharString index="156">
            218 callsubr
            hstem
            -3 callsubr
            return
          </CharString>
          <CharString index="157">
            hstemhm
            59 291 -238 312 192 295 return
          </CharString>
          <CharString index="158">
            hintmask 01011000
            618 1091 rmoveto
            -160 -219 -174 -186 -231 -144 rrcurveto
            -25 vlineto
            hintmask 10011000
            231 -145 174 -184 160 -219 rrcurveto
            hintmask 01101000
            31 11 -64 210 -115 228 -111 114 rlinecurve
            111 114 115 224 64 210 rrcurveto
            return
          </CharString>
          <CharString index="159">
            hintmask 01100000
            622 1267 rmoveto
            -160 -219 -174 -186 -231 -144 rrcurveto
            -25 vlineto
            231 -145 174 -184 160 -219 31 11 rcurveline
            -64 210 -115 228 -111 114 rrcurveto
            hintmask 10100000
            111 114 115 224 64 210 rrcurveto
            return
          </CharString>
          <CharString index="160">
            -318 -29 47 -11 -21 1057 45 73 callsubr
            -95 43 hintmask 10110010
            return
          </CharString>
          <CharString index="161">
            24 73 hhcurveto
            45 45 -18 -29 27 hvcurveto
            24 -26 15 -36 -71 vvcurveto
            return
          </CharString>
          <CharString index="162">
            43 vlineto
            -99 -32 58 122 hvcurveto
            return
          </CharString>
          <CharString index="163">
            6 callgsubr
            endchar
          </CharString>
          <CharString index="164">
            vstem
            628 1190 rmoveto
            -159 -218 -175 -186 -231 -145 rrcurveto
            -25 vlineto
            231 -144 175 -185 159 -219 31 11 rcurveline
            -63 211 -116 227 -111 115 111 114 116 223 63 211 rrcurveto
            return
          </CharString>
          <CharString index="165">
            vlineto
            55 -55 -78 22 -93 hhcurveto
            -263 -195 -183 -371 -390 174 -173 244 133 86 63 118 47 hvcurveto
            return
          </CharString>
          <CharString index="166">
            -66 callgsubr
            41 vlineto
            118 callgsubr
            return
          </CharString>
          <CharString index="167">
            -10 106 -4 108 52 vvcurveto
            return
          </CharString>
          <CharString index="168">
            97 71 64 95 100 -67 58 -94 -49 -42 -18 -31 -29 hvcurveto
            -3 13 -1 13 13 vvcurveto
            15 1 15 4 16 vhcurveto
            13 72 65 75 77 34 -19 37 rcurveline
            -146 -68 -68 -124 -136 vvcurveto
            -64 16 -65 28 -42 vhcurveto
            -45 30 49 -27 67 hhcurveto
            endchar
          </CharString>
          <CharString index="169">
            59 23 309 callsubr
            -41 -55 -2 -60 hhcurveto
            endchar
          </CharString>
          <CharString index="170">
            292 -29 37 1229 37 return
          </CharString>
          <CharString index="171">
            0 41 1368 164 callsubr
            1570 267 callgsubr
            133 callsubr
            return
          </CharString>
          <CharString index="172">
            hstem
            77 309 385 309 vstem
            return
          </CharString>
          <CharString index="173">
            103 0 41 508 41 864 -20 return
          </CharString>
          <CharString index="174">
            hhcurveto
            252 217 160 426 358 -159 173 -211 hvcurveto
            -162 -1073 rmoveto
            -52 -55 17 37 -45 hvcurveto
            752 vlineto
            113 24 83 66 85 hhcurveto
            114 69 -121 -350 -347 -74 -167 -149 hvcurveto
            endchar
          </CharString>
          <CharString index="175">
            -73 -1 -56 -53 -84 vvcurveto
            -124 60 -80 55 -195 vhcurveto
            29 hlineto
            55 205 59 72 124 vvcurveto
            84 -56 52 -73 vhcurveto
            return
          </CharString>
          <CharString index="176">
            -67 -4 -118 -2 -126 return
          </CharString>
          <CharString index="177">
            36 7 -20 42 -20 return
          </CharString>
          <CharString index="178">
            84 callsubr
            -108 -7 -101 -64 callgsubr
            54 2 126 6 96 return
          </CharString>
          <CharString index="179">
            -38 -79 -118 -11 -82 hhcurveto
            -84 -118 11 36 -79 hvcurveto
            69 17 57 44 72 vvcurveto
            82 -71 56 -95 -96 -65 -59 -77 return
          </CharString>
          <CharString index="180">
            hstemhm
            101 44 -44 272 192 305 return
          </CharString>
          <CharString index="181">
            77 24 60 53 73 vvcurveto
            86 -73 46 -97 -115 -72 -69 -88 -101 86 -73 140 68 57 17 41 45 vhcurveto
            30 28 29 37 43 74 114 198 rcurveline
            357 618 74 131 53 65 56 23 rlinecurve
            42 vlineto
            return
          </CharString>
          <CharString index="182">
            150 0 41 -24 -21 1208 41 255 callsubr
            881 47 hintmask 10111000
            return
          </CharString>
          <CharString index="183">
            -130 6 -24 113 callsubr
            return
          </CharString>
          <CharString index="184">
            41 9 -21 582 41 803 208 callsubr
            365 return
          </CharString>
          <CharString index="185">
            -56 callgsubr
            -1016 vlineto
            -50 callsubr
            return
          </CharString>
          <CharString index="186">
            -20 -86 -99 -9 -114 hhcurveto
            return
          </CharString>
          <CharString index="187">
            -35 -33 -96 vhcurveto
            -43 vlineto
            return
          </CharString>
          <CharString index="188">
            -41 vlineto
            -60 callsubr
            -1016 vlineto
            hintmask 00111100
            -149 -23 -21 -130 -102 callgsubr
            return
          </CharString>
          <CharString index="189">
            hvcurveto
            253 vlineto
            115 36 33 95 vhcurveto
            43 vlineto
            -54 -2 -125 -7 -102 -103 -104 7 -48 -9 callsubr
            81 29 126 callsubr
            -677 vlineto
            -114 -32 -33 -86 vhcurveto
            -43 vlineto
            52 2 118 6 96 return
          </CharString>
          <CharString index="190">
            rmoveto
            45 callsubr
            return
          </CharString>
          <CharString index="191">
            146 callsubr
            27 33 75 vhcurveto
            43 vlineto
            -49 -2 return
          </CharString>
          <CharString index="192">
            161 callsubr
            130 -6 24 return
          </CharString>
          <CharString index="193">
            vvcurveto
            -87 67 -53 119 122 return
          </CharString>
          <CharString index="194">
            -2 78 -65 callgsubr
            return
          </CharString>
          <CharString index="195">
            rmoveto
            -42 -4 -71 -2 -65 return
          </CharString>
          <CharString index="196">
            267 callgsubr
            -75 callgsubr
            return
          </CharString>
          <CharString index="197">
            hflex1
            -91 callgsubr
            return
          </CharString>
          <CharString index="198">
            219 callsubr
            -100 -106 7 -48 -9 callsubr
            return
          </CharString>
          <CharString index="199">
            150 23 20 return
          </CharString>
          <CharString index="200">
            1578 rmoveto
            251 148 150 125 58 hvcurveto
            -24 22 rlineto
            -55 -74 -137 -69 -222 hhcurveto
            -221 -137 68 55 -73 hvcurveto
            -25 -21 rlineto
            -125 58 148 -150 250 hhcurveto
            return
          </CharString>
          <CharString index="201">
            -65 callgsubr
            -130 6 -23 -53 callsubr
            49 callgsubr
          </CharString>
          <CharString index="202">
            -9 -114 hhcurveto
            hintmask 1000010110000000
            -41 -43 3 4 -43 hvcurveto
            hintmask 1000101110000000
            215 callsubr
            return
          </CharString>
          <CharString index="203">
            133 callgsubr
            -112 -151 vvcurveto
            return
          </CharString>
          <CharString index="204">
            rmoveto
            -55 -35 15 53 53 40 29 65 42 hvcurveto
            -12 51 57 -6 61 hhcurveto
            return
          </CharString>
          <CharString index="205">
            -183 -93 -65 -77 -116 vvcurveto
            -163 153 -28 77 vhcurveto
            49 hlineto
            return
          </CharString>
          <CharString index="206">
            -97 callgsubr
            62 4 108 2 117 return
          </CharString>
          <CharString index="207">
            hstem
            76 309 319 258 vstem
            return
          </CharString>
          <CharString index="208">
            hstemhm
            119 callsubr
            return
          </CharString>
          <CharString index="209">
            vvcurveto
            -87 67 -53 120 122 85 42 97 73 vhcurveto
            return
          </CharString>
          <CharString index="210">
            43 974 70 callsubr
            return
          </CharString>
          <CharString index="211">
            -58 -151 -60 -53 -60 -11 return
          </CharString>
          <CharString index="212">
            88 340 768 340 return
          </CharString>
          <CharString index="213">
            -4 -122 -2 return
          </CharString>
          <CharString index="214">
            97 -76 -21 29 41 647 41 680 35 hstemhm
            -3 callsubr
            return
          </CharString>
          <CharString index="215">
            97 -76 -21 29 41 528 41 594 35 57 callgsubr
            return
          </CharString>
          <CharString index="216">
            187 callsubr
            hstemhm
            394 190 -151 186 hintmask 00000000
            hintmask 11110000
            350 return
          </CharString>
          <CharString index="217">
            1245 rmoveto
            -65 -4 -113 -2 -121 156 callgsubr
            -76 179 callgsubr
            198 callgsubr
            -811 vlineto
            -149 -23 -27 -131 vhcurveto
            return
          </CharString>
          <CharString index="218">
            71 55 -96 -238 -238 -55 -96 -71 -72 -55 96 238 238 55 96 72 hvcurveto
            return
          </CharString>
          <CharString index="219">
            1883 240 callgsubr
            106 68 60 98 99 -68 60 -106 hvcurveto
            return
          </CharString>
          <CharString index="220">
            -53 callsubr
            -41 callgsubr
            return
          </CharString>
          <CharString index="221">
            78 124 -32 160 hhcurveto
            158 124 32 return
          </CharString>
          <CharString index="222">
            hstem
            186 314 626 48 vstem
            return
          </CharString>
          <CharString index="223">
            101 -29 84 1149 41 return
          </CharString>
          <CharString index="224">
            hvcurveto
            -41 vlineto
            4 callgsubr
            return
          </CharString>
          <CharString index="225">
            vlineto
            -114 -30 -33 -81 vhcurveto
            return
          </CharString>
          <CharString index="226">
            181 295 return
          </CharString>
          <CharString index="227">
            175 -131 -20 121 174 hstemhm
            return
          </CharString>
          <CharString index="228">
            -262 -94 241 273 -17 return
          </CharString>
          <CharString index="229">
            91 callsubr
            177 callsubr
            return
          </CharString>
          <CharString index="230">
            rmoveto
            -39 callgsubr
            return
          </CharString>
          <CharString index="231">
            307 0 137 return
          </CharString>
          <CharString index="232">
            -43 2 4 -43 hvcurveto
            return
          </CharString>
          <CharString index="233">
            -33 -115 hvcurveto
            return
          </CharString>
          <CharString index="234">
            719 17 -21 1413 41 hstem
            -24 2018 vstem
            return
          </CharString>
          <CharString index="235">
            617 17 -21 1208 41 hstem
            -25 1917 vstem
            return
          </CharString>
          <CharString index="236">
            7 -52 -9 callsubr
            return
          </CharString>
          <CharString index="237">
            41 hstemhm
            -3 callsubr
            return
          </CharString>
          <CharString index="238">
            -530 -383 39 1548 41 hstem
            -276 310 177 313 vstem
            return
          </CharString>
          <CharString index="239">
            -517 -385 41 1753 41 hstem
            -323 319 215 326 vstem
            return
          </CharString>
          <CharString index="240">
            -70 -4 -123 -2 -131 return
          </CharString>
          <CharString index="241">
            -115 -348 -315 -63 -195 -182 hvcurveto
            endchar
          </CharString>
          <CharString index="242">
            145 callsubr
            vhcurveto
            return
          </CharString>
          <CharString index="243">
            -1401 vmoveto
            -129 -101 60 117 44 22 72 48 46 hvcurveto
            352 hlineto
            93 25 -30 -55 -161 -145 -93 -165 hvcurveto
            endchar
          </CharString>
          <CharString index="244">
            368 167 134 236 188 -121 154 -463 2 hvcurveto
            return
          </CharString>
          <CharString index="245">
            296 callgsubr
            -102 -105 -86 -51 -80 -78 -86 51 105 102 86 56 78 hvcurveto
            return
          </CharString>
          <CharString index="246">
            12 0 41 1367 43 hstem
            499 326 vstem
            return
          </CharString>
          <CharString index="247">
            1677 rmoveto
            52 -819 -52 vlineto
            return
          </CharString>
          <CharString index="248">
            135 vlineto
            209 76 86 146 return
          </CharString>
          <CharString index="249">
            2 201 callsubr
            return
          </CharString>
          <CharString index="250">
            272 callgsubr
            198 17 87 39 70 vhcurveto
            93 50 84 59 128 hhcurveto
            52 54 -11 -15 26 hvcurveto
            return
          </CharString>
          <CharString index="251">
            1245 rmoveto
            -89 -152 -4 -2 -106 hvcurveto
            -18 -19 -1 -19 hhcurveto
            -83 -84 4 3 -51 288 callsubr
            return
          </CharString>
          <CharString index="252">
            88 callsubr
            -73 -95 2 -53 hflex1
            -35 callsubr
            return
          </CharString>
          <CharString index="253">
            -29 79 callgsubr
            return
          </CharString>
          <CharString index="254">
            119 127 -2 76 -65 callgsubr
            return
          </CharString>
          <CharString index="255">
            1927 43 hstem
            return
          </CharString>
          <CharString index="256">
            rmoveto
            -47 114 -19 108 -56 73 rrcurveto
            77 -58 -99 43 -146 hhcurveto
            -17 -19 -1 -1 -19 hvcurveto
            86 38 27 74 30 95 rrcurveto
            return
          </CharString>
          <CharString index="257">
            -31 0 47 1356 47 hstem
            80 1060 vstem
            return
          </CharString>
          <CharString index="258">
            -78 0 47 1151 47 hstem
            93 997 vstem
            return
          </CharString>
          <CharString index="259">
            hstemhm
            47 278 -246 183 -166 303 return
          </CharString>
          <CharString index="260">
            -131 6 -23 return
          </CharString>
          <CharString index="261">
            -191 -143 -139 -205 -211 137 -123 197 return
          </CharString>
          <CharString index="262">
            105 0 41 1362 47 hstem
            521 326 413 41 vstem
            return
          </CharString>
          <CharString index="263">
            42 100 callgsubr
            354 295 vstem
            1256 1058 rmoveto
            219 callsubr
            return
          </CharString>
          <CharString index="264">
            rmoveto
            -102 -18 35 141 hvcurveto
            606 88 vlineto
            226 61 -166 -236 -232 -54 -148 -201 hvcurveto
            endchar
          </CharString>
          <CharString index="265">
            -124 2 -67 hflex1
            -41 vlineto
            return
          </CharString>
          <CharString index="266">
            47 -41 130 callsubr
            return
          </CharString>
          <CharString index="267">
            -502 178 callgsubr
            return
          </CharString>
          <CharString index="268">
            -64 -71 2 -43 hflex1
            -41 vlineto
            return
          </CharString>
          <CharString index="269">
            50 48 66 vvcurveto
            78 -69 58 -94 return
          </CharString>
          <CharString index="270">
            45 452 58 hstem
            57 195 314 195 vstem
            478 return
          </CharString>
          <CharString index="271">
            41 hstem
            -3 callsubr
            543 325 vstem
            return
          </CharString>
          <CharString index="272">
            hstemhm
            158 218 callgsubr
            return
          </CharString>
          <CharString index="273">
            187 callgsubr
            139 return
          </CharString>
          <CharString index="274">
            hstem
            52 316 327 355 vstem
            return
          </CharString>
          <CharString index="275">
            11 17 14 6 12 hhcurveto
            return
          </CharString>
          <CharString index="276">
            37 -59 -92 26 -106 hhcurveto
            return
          </CharString>
          <CharString index="277">
            181 callsubr
            endchar
          </CharString>
          <CharString index="278">
            118 6 122 return
          </CharString>
          <CharString index="279">
            202 callgsubr
            -18 return
          </CharString>
          <CharString index="280">
            -385 53 137 return
          </CharString>
          <CharString index="281">
            43 vlineto
            -103 -60 31 116 hvcurveto
            827 return
          </CharString>
          <CharString index="282">
            244 vlineto
            109 34 8 callgsubr
            return
          </CharString>
          <CharString index="283">
            -266 -398 -407 return
          </CharString>
          <CharString index="284">
            81 30 126 callsubr
            return
          </CharString>
          <CharString index="285">
            309 157 309 return
          </CharString>
          <CharString index="286">
            -4 -36 callsubr
            return
          </CharString>
          <CharString index="287">
            43 vlineto
            -104 -39 -32 callsubr
            -1359 868 rmoveto
            141 callsubr
            return
          </CharString>
          <CharString index="288">
            hflex1
            112 callgsubr
            return
          </CharString>
          <CharString index="289">
            -7 callgsubr
            52 2 return
          </CharString>
          <CharString index="290">
            31 callsubr
            -122 hvcurveto
            return
          </CharString>
          <CharString index="291">
            66 0 41 1157 47 hstem
            508 313 vstem
            return
          </CharString>
          <CharString index="292">
            193 callgsubr
            82 -72 72 -82 return
          </CharString>
          <CharString index="293">
            -493 218 callsubr
            return
          </CharString>
          <CharString index="294">
            35 436 22 265 77 return
          </CharString>
          <CharString index="295">
            85 82 -73 72 -82 return
          </CharString>
          <CharString index="296">
            0 43 972 43 return
          </CharString>
          <CharString index="297">
            -151 -385 35 339 273 174 37 578 37 -20 -20 26 -20 66 244 return
          </CharString>
          <CharString index="298">
            -149 -24 70 callgsubr
            73 4 122 2 114 245 callsubr
            return
          </CharString>
          <CharString index="299">
            265 callgsubr
            endchar
          </CharString>
          <CharString index="300">
            417 0 41 1224 -20 164 41 hstem
            -3 callsubr
            584 325 vstem
            return
          </CharString>
          <CharString index="301">
            30 -48 202 -366 rcurveline
            7 -12 3 -10 -10 vvcurveto
            -24 -21 -14 -40 vhcurveto
            -43 vlineto
            2 return
          </CharString>
          <CharString index="302">
            -65 callgsubr
            -140 6 -26 -53 callsubr
            return
          </CharString>
          <CharString index="303">
            -39 -29 89 -60 -21 28 37 -22 -21 1028 59 return
          </CharString>
          <CharString index="304">
            hstemhm
            -14 1627 -367 367 return
          </CharString>
          <CharString index="305">
            45 -30 -49 27 -67 hhcurveto
            return
          </CharString>
          <CharString index="306">
            1118 rmoveto
            -35 74 -997 -465 997 -465 35 74 -838 391 rlineto
            return
          </CharString>
          <CharString index="307">
            727 rmoveto
            -997 465 -35 -74 838 -391 -838 -391 35 -74 rlineto
            return
          </CharString>
          <CharString index="308">
            126 109 return
          </CharString>
          <CharString index="309">
            34 callgsubr
            -1167 vlineto
            -114 return
          </CharString>
          <CharString index="310">
            214 277 callsubr
            698 35 636 40 hstemhm
            -3 callsubr
            return
          </CharString>
          <CharString index="311">
            37 hstem
            170 294 330 295 vstem
            return
          </CharString>
          <CharString index="312">
            hlineto
            141 22 35 105 vhcurveto
            endchar
          </CharString>
          <CharString index="313">
            42 97 73 vhcurveto
            -28 29 rlineto
            return
          </CharString>
          <CharString index="314">
            41 1163 41 return
          </CharString>
          <CharString index="315">
            281 callsubr
            88 return
          </CharString>
          <CharString index="316">
            4 124 2 return
          </CharString>
          <CharString index="317">
            hlineto
            10 -106 4 -108 -52 vvcurveto
            -54 -2 -46 -4 -33 vhcurveto
            47 hlineto
            271 return
          </CharString>
          <CharString index="318">
            -23 -9 callsubr
            106 57 -29 -99 hvcurveto
            -6 -1 -7 -7 vvcurveto
            -18 -242 return
          </CharString>
          <CharString index="319">
            233 0 37 1171 37 hstem
            7 callsubr
            541 327 vstem
            return
          </CharString>
          <CharString index="320">
            -134 0 41 1157 41 -41 47 57 callgsubr
            479 41 return
          </CharString>
          <CharString index="321">
            276 callsubr
            119 105 77 124 return
          </CharString>
          <CharString index="322">
            -43 vlineto
            7 callgsubr
            return
          </CharString>
          <CharString index="323">
            101 102 30 144 221 vvcurveto
            return
          </CharString>
          <CharString index="324">
            -106 172 callgsubr
            return
          </CharString>
          <CharString index="325">
            0 266 callsubr
            return
          </CharString>
          <CharString index="326">
            -55 -2 -123 -7 -105 return
          </CharString>
          <CharString index="327">
            1744 rmoveto
            return
          </CharString>
          <CharString index="328">
            103 callgsubr
            49 42 18 31 29 hvcurveto
            3 -13 1 return
          </CharString>
          <CharString index="329">
            -195 -92 -66 -80 -116 vvcurveto
            -163 151 -27 78 vhcurveto
            48 hlineto
            return
          </CharString>
          <CharString index="330">
            7 -46 -9 callsubr
            75 27 126 callsubr
            -677 vlineto
            -114 return
          </CharString>
          <CharString index="331">
            -59 -40 -103 -150 -168 20 -23 rcurveline
            return
          </CharString>
          <CharString index="332">
            -27 callsubr
            -81 246 callgsubr
            return
          </CharString>
          <CharString index="333">
            216 callgsubr
            -6 25 return
          </CharString>
          <CharString index="334">
            24 233 callsubr
            return
          </CharString>
          <CharString index="335">
            -139 -68 hvcurveto
            return
          </CharString>
          <CharString index="336">
            hvcurveto
            490 hmoveto
            return
          </CharString>
          <CharString index="337">
            -43 vlineto
            51 10 -29 -53 -41 -8 -88 -33 -209 hvcurveto
            29 -8 rlineto
            return
          </CharString>
          <CharString index="338">
            -43 vlineto
            51 11 -28 -54 -40 -9 -85 -32 -204 hvcurveto
            28 -9 rlineto
            return
          </CharString>
          <CharString index="339">
            rmoveto
            170 -739 -170 vlineto
            endchar
          </CharString>
          <CharString index="340">
            -20 -150 vvcurveto
            return
          </CharString>
          <CharString index="341">
            41 653 47 return
          </CharString>
          <CharString index="342" raw="1">
            3af7260a a8acdc1e 0b 
          </CharString>
          <CharString index="343">
            43 499 41 436 41 478 37 hstem
            170 294 return
          </CharString>
          <CharString index="344">
            199 160 170 211 130 rrcurveto
            25 vlineto
            -211 return
          </CharString>
          <CharString index="345">
            141 193 95 122 87 vvcurveto
            24 -4 35 -7 14 vhcurveto
            return
          </CharString>
          <CharString index="346">
            37 346 65 -65 99 755 72 return
          </CharString>
          <CharString index="347">
            376 295 callgsubr
            return
          </CharString>
          <CharString index="348">
            -33 -104 vhcurveto
            -43 vlineto
            2 57 return
          </CharString>
          <CharString index="349">
            rmoveto
            62 -1026 -62 vlineto
            return
          </CharString>
          <CharString index="350">
            175 -29 174 hstemhm
            return
          </CharString>
          <CharString index="351">
            hflex1
            -41 vlineto
            39 -2 return
          </CharString>
          <CharString index="352">
            131 123 -2 return
          </CharString>
          <CharString index="353">
            -72 35 133 hvcurveto
            return
          </CharString>
          <CharString index="354">
            -52 228 callsubr
            return
          </CharString>
          <CharString index="355">
            111 6 105 return
          </CharString>
          <CharString index="356">
            -115 -72 -60 return
          </CharString>
          <CharString index="357">
            100 106 -6 48 225 callsubr
            return
          </CharString>
          <CharString index="358">
            4 -66 hflex1
            -42 vlineto
            120 -3 30 -26 -135 vvcurveto
            return
          </CharString>
          <CharString index="359">
            -145 35 90 -56 158 hhcurveto
            46 49 5 8 51 hvcurveto
            return
          </CharString>
          <CharString index="360">
            260 callsubr
            -36 return
          </CharString>
          <CharString index="361">
            309 hintmask 00000000
            return
          </CharString>
          <CharString index="362">
            hstemhm
            225 47 return
          </CharString>
          <CharString index="363">
            -62 164 -114 111 -207 96 rrcurveto
            -35 vlineto
            return
          </CharString>
          <CharString index="364">
            40 488 41 57 callgsubr
            297 callgsubr
            return
          </CharString>
          <CharString index="365">
            126 callsubr
            -677 118 callsubr
            return
          </CharString>
          <CharString index="366">
            hlineto
            -139 -27 239 callgsubr
            return
          </CharString>
          <CharString index="367">
            266 rmoveto
            58 2 52 4 38 9 callgsubr
            -274 return
          </CharString>
          <CharString index="368">
            vlineto
            93 -4 61 -37 -86 vvcurveto
            -57 -25 -77 -59 -104 vhcurveto
            return
          </CharString>
          <CharString index="369">
            rrcurveto
            35 hlineto
            94 207 135 118 195 58 return
          </CharString>
          <CharString index="370">
            -168 -158 -48 -90 -96 hvcurveto
            return
          </CharString>
          <CharString index="371">
            229 callgsubr
            -144 -123 return
          </CharString>
          <CharString index="372">
            vhcurveto
            -43 vlineto
            51 2 return
          </CharString>
          <CharString index="373">
            41 1368 41 return
          </CharString>
          <CharString index="374">
            4 vhcurveto
            41 vlineto
            return
          </CharString>
          <CharString index="375">
            1602 rmoveto
            return
          </CharString>
          <CharString index="376">
            -586 -152 39 822 36 818 39 hstem
            return
          </CharString>
          <CharString index="377">
            -580 -385 39 940 37 932 39 hstem
            return
          </CharString>
          <CharString index="378">
            -546 -119 39 688 37 680 39 hstem
            return
          </CharString>
          <CharString index="379">
            -10 -52 -49 -6 -69 hhcurveto
            -31 -35 1 3 -42 hvcurveto
            return
          </CharString>
          <CharString index="380">
            1088 rmoveto
            -141 -115 -68 -128 -58 hvcurveto
            return
          </CharString>
          <CharString index="381">
            -85 -100 304 callgsubr
            return
          </CharString>
          <CharString index="382">
            -234 306 callgsubr
            return
          </CharString>
          <CharString index="383">
            197 callgsubr
            -77 116 return
          </CharString>
          <CharString index="384">
            -29 97 -76 -21 29 41 return
          </CharString>
          <CharString index="385">
            196 273 197 return
          </CharString>
          <CharString index="386">
            -27 callsubr
            -89 -33 return
          </CharString>
          <CharString index="387">
            -2 84 -65 callgsubr
            return
          </CharString>
          <CharString index="388">
            53 -29 -20 hstemhm
            return
          </CharString>
          <CharString index="389">
            -27 callsubr
            -121 246 callsubr
            return
          </CharString>
          <CharString index="390">
            165 154 46 hvcurveto
            -38 14 rlineto
            -136 return
          </CharString>
          <CharString index="391">
            -47 callgsubr
            41 vlineto
            return
          </CharString>
          <CharString index="392">
            vlineto
            92 callsubr
            131 7 vhcurveto
            41 vlineto
            return
          </CharString>
          <CharString index="393">
            141 vlineto
            149 23 21 143 callgsubr
            return
          </CharString>
          <CharString index="394">
            hlineto
            58 303 rlineto
            -41 hlineto
            -58 -303 rlineto
            return
          </CharString>
          <CharString index="395">
            117 callsubr
            -18 -152 vvcurveto
            return
          </CharString>
          <CharString index="396">
            43 vlineto
            -68 8 -23 34 -30 71 rrcurveto
            endchar
          </CharString>
          <CharString index="397">
            77 115 21 75 54 rrcurveto
            return
          </CharString>
          <CharString index="398">
            230 callgsubr
            272 41 return
          </CharString>
          <CharString index="399">
            43 -70 -87 31 -170 hhcurveto
            return
          </CharString>
          <CharString index="400">
            vlineto
            139 91 98 return
          </CharString>
          <CharString index="401">
            -1077 rcurveline
            16 2 return
          </CharString>
          <CharString index="402">
            rlineto
            22 2 22 1 return
          </CharString>
          <CharString index="403">
            6 vhcurveto
            41 vlineto
            return
          </CharString>
          <CharString index="404">
            2 121 6 return
          </CharString>
          <CharString index="405">
            hstemhm
            -3 callsubr
            561 41 hintmask 11101110
            return
          </CharString>
          <CharString index="406">
            268 callgsubr
            -71 70 callsubr
            return
          </CharString>
          <CharString index="407">
            170 hstem
            123 739 vstem
            862 return
          </CharString>
          <CharString index="408">
            -52 callgsubr
            2 return
          </CharString>
          <CharString index="409">
            -590 -131 39 1634 39 hstem
            return
          </CharString>
          <CharString index="410">
            -13 113 -1 118 56 vvcurveto
            -891 return
          </CharString>
          <CharString index="411">
            73 38 162 callsubr
            return
          </CharString>
          <CharString index="412">
            58 128 84 -59 55 -99 -93 -71 -49 return
          </CharString>
          <CharString index="413">
            hlineto
            177 callsubr
            -677 vlineto
            return
          </CharString>
          <CharString index="414">
            -240 22 rmoveto
            -28 -12 -15 -41 2 -39 return
          </CharString>
          <CharString index="415">
            295 hintmask 00000000
            return
          </CharString>
          <CharString index="416">
            rlinecurve
            41 vlineto
            -4 return
          </CharString>
          <CharString index="417">
            41 164 41 return
          </CharString>
        <CharString name=".notdef">
          -112 0 61 1459 61 hstem
          123 74 757 74 vstem
          1028 hmoveto
          1581 -905 -1581 vlineto
          74 1520 rmoveto
          757 -1459 -757 hlineto
          endchar
        </CharString>
        <CharString name="A">
          44 callgsubr
          754 1454 14 callgsubr
          hintmask 11110000
          104 callsubr
          rrcurveto
          -104 callsubr
        </CharString>
        <CharString name="AE">
          557 0 41 -41 46 callgsubr
          hstemhm
          -29 324 528 326 483 41 hintmask 01110011
          1714 258 callgsubr
          -31 -98 -101 -142 hhcurveto
          -100 hlineto
          -128 282 callgsubr
          hvcurveto
          492 108 vlineto
          142 24 -125 -117 18 180 callgsubr
          -18 -17 -154 -143 hhcurveto
          -108 483 hlineto
          149 25 21 128 vhcurveto
          68 hlineto
          143 85 -90 -281 34 200 callgsubr
          -169 0 -121 hhcurveto
          -79 -140 0 2 -144 hvcurveto
          79 135 rlineto
          -49 hlineto
          -79 -135 -67 1 -67 1 -60 2 rlinecurve
          hintmask 10101111
          -41 vlineto
          81 -4 39 -9 19 -42 -696 -1182 rcurveline
          -57 -97 -41 -32 -43 -2 rrcurveto
          hintmask 01110111
          -41 vlineto
          34 4 55 2 48 74 72 -2 41 hflex1
          hintmask 10110111
          41 vlineto
          -93 4 -49 18 50 vvcurveto
          25 12 32 25 43 vhcurveto
          290 496 rlineto
          343 -492 hlineto
          hintmask 01110011
          -149 -20 -21 -117 -36 callgsubr
          199 6 268 0 122 133 186 0 134 hflex1
          303 callsubr
          463 rmoveto
          -319 hlineto
          317 541 rlineto
          1 -17 1 -19 -22 vvcurveto
          endchar
        </CharString>
        <CharString name="Aacute">
          44 callgsubr
          971 -57 callgsubr
          -217 -263 14 callgsubr
          hintmask 11110000
          104 callsubr
          rrcurveto
          -104 callsubr
        </CharString>
        <CharString name="Abreve">
          66 callsubr
          144 173 hstemhm
          -32 230 -230 1412 hintmask 11110100
          667 93 callsubr
          87 -124 14 callgsubr
          hintmask 11111000
          104 callsubr
          rrcurveto
          -104 callsubr
        </CharString>
        <CharString name="Acircumflex">
          44 callgsubr
          639 -13 callgsubr
          115 -254 14 callgsubr
          hintmask 11110000
          104 callsubr
          rrcurveto
          -104 callsubr
        </CharString>
        <CharString name="Adieresis">
          66 callsubr
          135 309 hstem
          -32 230 82 130 callgsubr
          vstem
          435 -19 callsubr
          -171 -115 19 callsubr
          104 callsubr
          rlinecurve
          -104 callsubr
        </CharString>
        <CharString name="Agrave">
          44 callgsubr
          377 1717 rmoveto
          30 callgsubr
          25 rcurveline
          -194 159 125 callgsubr
          -83 callgsubr
          377 -263 14 callgsubr
          hintmask 11110000
          104 callsubr
          rrcurveto
          -104 callsubr
        </CharString>
        <CharString name="Amacron">
          66 callsubr
          243 52 hstemhm
          -32 230 -230 1412 hintmask 11110100
          1089 140 callsubr
          484 -223 14 callgsubr
          hintmask 11111000
          104 callsubr
          rrcurveto
          -104 callsubr
        </CharString>
        <CharString name="Aogonek">
          103 291 callsubr
          508 41 864 -20 hstem
          -32 230 711 223 vstem
          1380 hmoveto
          41 vlineto
          -39 2 -52 31 -38 98 -497 1282 rcurveline
          -11 callsubr
          104 callsubr
          rlinecurve
          -41 vlineto
          41 4 56 2 60 85 77 -2 93 -65 callgsubr
          -112 3 -70 28 108 vvcurveto
          54 17 73 39 100 vhcurveto
          55 142 rlineto
          445 hlineto
          123 -336 rlineto
          16 -41 8 -32 -24 vvcurveto
          -56 -46 -15 -98 179 callsubr
          4 68 117 2 127 hhcurveto
          67 69 -1 -1 62 hvcurveto
          -225 -50 -133 -87 -112 42 callsubr
          60 54 79 155 52 hvcurveto
          -602 588 rmoveto
          -415 hlineto
          212 551 rlineto
          endchar
        </CharString>
        <CharString name="Aring">
          66 callsubr
          86 43 313 43 hstem
          -32 230 261 57 330 58 vstem
          680 1520 rmoveto
          119 105 76 124 243 callgsubr
          197 callgsubr
          -76 116 hvcurveto
          356 211 callgsubr
          74 -422 19 callsubr
          104 callsubr
          rlinecurve
          -104 callsubr
        </CharString>
        <CharString name="Atilde">
          66 callsubr
          138 243 callsubr
          -32 230 -230 1412 hintmask 11101010
          425 1718 rmoveto
          162 77 -146 193 hhcurveto
          hintmask 11110010
          41 callgsubr
          159 callgsubr
          hintmask 11101010
          -124 -112 -87 -188 -38 hvcurveto
          29 -11 rlineto
          82 46 57 30 67 hhcurveto
          329 -264 14 callgsubr
          hintmask 11101100
          104 callsubr
          rrcurveto
          -104 callsubr
        </CharString>
        <CharString name="B">
          -41 callsubr
        </CharString>
        <CharString name="C">
          25 callgsubr
          813 1479 -99 callsubr
        </CharString>
        <CharString name="CR">
          -1263 endchar
        </CharString>
        <CharString name="Cacute">
          25 callgsubr
          958 1912 -93 callgsubr
          -145 -433 -99 callsubr
        </CharString>
        <CharString name="Cacute.loclPLK">
          25 callgsubr
          900 -55 callgsubr
          -87 -476 -99 callsubr
        </CharString>
        <CharString name="Ccaron">
          25 callgsubr
          1198 -58 callsubr
          -395 -412 -99 callsubr
        </CharString>
        <CharString name="Ccedilla">
          182 173 callsubr
          86 80 50 -49 49 0 -21 1426 208 callsubr
          364 444 215 171 39 -39 47 hintmask 0000000000000000
          hintmask 1001010101000000
          1273 516 rmoveto
          -19 -200 -25 -114 -106 -82 rrcurveto
          -66 -66 -99 -33 -90 hhcurveto
          -293 -123 333 367 362 114 343 294 97 94 -35 -66 68 hvcurveto
          106 -84 26 -99 22 -188 rrcurveto
          48 hlineto
          hintmask 1001001101000000
          250 220 callgsubr
          105 vhcurveto
          hintmask 1001001100100000
          253 callgsubr
          hintmask 1101010110100000
          236 callgsubr
          -457 274 -271 416 -13 hvcurveto
          -56 -181 rlineto
          -76 callgsubr
          hintmask 1010010101000000
          33 104 163 5 97 60 96 68 rlinecurve
          168 callsubr
          hintmask 1000110101000000
          29 13 -37 -84 8 hvcurveto
          47 hlineto
          -6 109 -2 147 260 vvcurveto
          endchar
        </CharString>
        <CharString name="Ccircumflex">
          25 callgsubr
          758 1925 -84 callsubr
          18 -446 -99 callsubr
        </CharString>
        <CharString name="Cdotaccent">
          182 -29 50 0 -21 1426 208 callsubr
          364 162 348 320 39 hintmask 10101110
          788 112 callsubr
          25 -404 rmoveto
          -63 callgsubr
          176 102 62 71 100 hvcurveto
          168 callsubr
          hintmask 01101110
          29 13 -37 -84 8 hvcurveto
          47 hlineto
          -6 109 -2 147 260 vvcurveto
          -48 hlineto
          hintmask 10101110
          -19 -200 -25 -114 -106 -82 rrcurveto
          -66 -66 -99 -33 -90 hhcurveto
          -293 -123 333 367 362 114 343 294 97 94 -35 -66 68 hvcurveto
          106 -84 26 -99 22 -188 rrcurveto
          48 hlineto
          hintmask 10011110
          250 220 callgsubr
          105 vhcurveto
          253 callgsubr
          hintmask 10101110
          69 -90 -106 64 -180 hhcurveto
          endchar
        </CharString>
        <CharString name="D">
          212 callgsubr
          702 1450 10 callsubr
        </CharString>
        <CharString name="Dcaron">
          212 callgsubr
          1124 -58 callsubr
          -432 -441 10 callsubr
        </CharString>
        <CharString name="Dcroat">
          -16 callsubr
        </CharString>
        <CharString name="Delta">
          -238 0 61 1418 -20 hstem
          55 905 vstem
          565 234 callgsubr
          -33 hlineto
          -477 -1479 rlineto
          151 4 152 2 152 149 152 -2 149 hflex1
          -844 61 rmoveto
          288 902 246 -902 rlineto
          endchar
        </CharString>
        <CharString name="E">
          24 callsubr
          1191 311 124 callgsubr
          -107 callgsubr
          hintmask 11011100
          -84 callgsubr
          hintmask 11101100
          53 callgsubr
        </CharString>
        <CharString name="Eacute">
          24 callsubr
          935 -57 callgsubr
          256 -1406 124 callgsubr
          -107 callgsubr
          hintmask 11011100
          -84 callgsubr
          hintmask 11101100
          53 callgsubr
        </CharString>
        <CharString name="Ebreve">
          35 0 46 callgsubr
          128 173 298 callsubr
          631 93 callsubr
          560 -1267 124 callgsubr
          -107 callgsubr
          hintmask 11011110
          -84 callgsubr
          hintmask 11101110
          53 callgsubr
        </CharString>
        <CharString name="Ecaron">
          24 callsubr
          657 89 callgsubr
          571 -1261 124 callgsubr
          -107 callgsubr
          hintmask 11011100
          -84 callgsubr
          hintmask 11101100
          53 callgsubr
        </CharString>
        <CharString name="Ecircumflex">
          24 callsubr
          603 -13 callgsubr
          588 -1397 124 callgsubr
          -107 callgsubr
          hintmask 11011100
          -84 callgsubr
          hintmask 11101100
          53 callgsubr
        </CharString>
        <CharString name="Edieresis">
          35 0 46 callgsubr
          119 309 hstemhm
          -3 callsubr
          -304 130 callgsubr
          65 41 hintmask 0000000000000000
          hintmask 1110101100000000
          399 -19 callsubr
          302 -1258 124 callgsubr
          hintmask 1110010010000000
          -107 callgsubr
          hintmask 1101010000000000
          -84 callgsubr
          hintmask 1110101100000000
          53 callgsubr
        </CharString>
        <CharString name="Edotaccent">
          35 0 46 callgsubr
          hstemhm
          222 326 -66 348 279 41 hintmask 00000000
          hintmask 11100100
          656 1566 rmoveto
          106 68 60 98 99 -68 60 -106 -107 -67 -60 -99 -98 67 -60 107 hvcurveto
          535 -1255 124 callgsubr
          hintmask 11101010
          -107 callgsubr
          hintmask 11011000
          -84 callgsubr
          hintmask 11100100
          53 callgsubr
        </CharString>
        <CharString name="Egrave">
          24 callsubr
          341 1717 rmoveto
          30 callgsubr
          25 rcurveline
          -194 159 125 callgsubr
          -83 callgsubr
          850 -1406 124 callgsubr
          -107 callgsubr
          hintmask 11011100
          -84 callgsubr
          hintmask 11101100
          53 callgsubr
        </CharString>
        <CharString name="Emacron">
          35 0 46 callgsubr
          227 52 298 callsubr
          1053 140 callsubr
          957 -1366 124 callgsubr
          -107 callgsubr
          hintmask 11011110
          -84 callgsubr
          hintmask 11101110
          53 callgsubr
        </CharString>
        <CharString name="Eng">
          210 -385 38 347 41 -22 -21 1411 41 hstemhm
          222 48 459 310 177 47 hintmask 11011010
          1238 1444 rmoveto
          -69 -70 2 4 -49 hvcurveto
          -41 vlineto
          139 -6 27 -56 callgsubr
          -743 vlineto
          -781 960 rlineto
          -51 -4 -69 -2 -68 -65 -71 2 -42 28 callgsubr
          42 4 71 2 65 70 69 -2 49 -65 callgsubr
          -139 6 -26 -53 callsubr
          905 vlineto
          hintmask 10111010
          888 -1126 rlineto
          hintmask 11011110
          1 20 19 1 17 hhcurveto
          -228 -13 -69 -117 -144 hhcurveto
          -14 -15 1 2 -12 hvcurveto
          62 26 30 54 54 vvcurveto
          78 -62 49 -89 -94 -65 -51 -87 -116 105 -48 132 181 116 93 423 vhcurveto
          1102 vlineto
          149 24 265 callgsubr
          41 vlineto
          hintmask 11011010
          -4 -42 -71 -2 -65 hhcurveto
          endchar
        </CharString>
        <CharString name="Eogonek">
          35 230 callgsubr
          272 46 callgsubr
          hstemhm
          222 326 206 223 132 41 hintmask 11110111
          1192 -217 rmoveto
          -30 -29 -54 -25 -48 hhcurveto
          -55 -29 28 55 60 53 79 154 51 hvcurveto
          21 -1 rlineto
          -12 123 -2 127 61 vvcurveto
          -39 callsubr
          -107 callgsubr
          hintmask 11101111
          -42 callsubr
          6 223 124 callsubr
          hhcurveto
          108 142 0 -3 123 hvcurveto
          -223 -49 -132 -87 -112 140 callgsubr
          endchar
        </CharString>
        <CharString name="Eth">
          -16 callsubr
        </CharString>
        <CharString name="Euro">
          46 -29 38 599 310 callsubr
          587 38 hstem
          211 316 364 319 vstem
          1046 325 rmoveto
          -92 -64 -47 -88 -59 41 -59 71 -22 hvcurveto
          -23 -29 -56 -18 -68 hhcurveto
          -202 -102 213 386 -16 hvcurveto
          289 hlineto
          24 41 rlineto
          -314 hlineto
          -1 23 0 24 25 vvcurveto
          32 1 30 1 30 vhcurveto
          405 hlineto
          23 41 rlineto
          -426 hlineto
          365 21 111 222 187 hhcurveto
          67 57 -18 -23 29 hvcurveto
          -70 -22 -42 -59 -59 vvcurveto
          -88 63 -47 93 97 66 55 83 62 -42 51 -59 37 vhcurveto
          41 -66 -88 25 -128 hhcurveto
          -312 -246 -246 -379 -49 hvcurveto
          -156 -41 151 hlineto
          -3 -32 -1 -34 -34 vvcurveto
          -22 1 -21 1 -21 vhcurveto
          -149 -41 151 hlineto
          -404 34 230 -233 347 hhcurveto
          92 104 22 44 86 hvcurveto
          62 33 40 55 62 vvcurveto
          83 -66 55 -98 vhcurveto
          endchar
        </CharString>
        <CharString name="Euro.smcp">
          47 -29 38 497 310 callsubr
          485 37 hstem
          213 315 375 307 vstem
          1052 321 rmoveto
          -87 -62 -44 -83 -55 41 -64 74 -19 hvcurveto
          -36 -35 -63 -11 -68 hhcurveto
          -200 -103 174 323 -18 hvcurveto
          288 hlineto
          25 41 rlineto
          -315 hlineto
          -1 23 0 24 24 vvcurveto
          32 1 31 1 30 vhcurveto
          406 hlineto
          22 41 rlineto
          -425 hlineto
          303 24 111 182 184 hhcurveto
          70 63 -16 -32 34 hvcurveto
          -73 -19 -42 -64 -55 vvcurveto
          -83 62 -44 87 95 63 55 81 62 -40 52 -63 39 vhcurveto
          46 -73 -93 15 -114 hhcurveto
          -306 -242 -204 -318 -55 hvcurveto
          -159 -41 153 hlineto
          -4 -33 -2 -33 -35 vvcurveto
          -21 1 -21 1 -21 vhcurveto
          -149 -41 153 hlineto
          -342 37 229 -193 342 hhcurveto
          77 109 12 49 95 hvcurveto
          65 35 37 56 62 vvcurveto
          82 -63 54 -95 vhcurveto
          endchar
        </CharString>
        <CharString name="F">
          -50 0 45 655 41 662 159 callsubr
          561 41 hintmask 11101100
          1164 267 callgsubr
          -126 -6 -177 0 -125 -137 -307 0 -223 hflex1
          hintmask 11011100
          -42 callsubr
          89 3 118 3 118 146 143 -3 84 hflex1
          45 vlineto
          -182 2 -37 22 160 vvcurveto
          471 72 vlineto
          164 64 -127 -143 22 hvcurveto
          47 hlineto
          -11 156 -2 67 68 28 -1 29 35 vvcurveto
          48 2 61 6 90 vhcurveto
          -48 hlineto
          -111 -21 -58 -160 -164 hhcurveto
          -72 516 hlineto
          hintmask 11101100
          128 22 18 119 vhcurveto
          68 hlineto
          191 107 -102 -318 54 -1 callgsubr
          38 -2 57 61 vvcurveto
          61 4 126 10 124 vhcurveto
          endchar
        </CharString>
        <CharString name="G">
          242 -29 77 callsubr
          846 47 -21 41 hintmask 10110110
          829 1479 -79 callsubr
        </CharString>
        <CharString name="Gacute">
          242 -29 77 callsubr
          846 47 -21 41 hintmask 10110110
          973 1912 -93 callgsubr
          -144 -433 -79 callsubr
        </CharString>
        <CharString name="Gbreve">
          242 -29 41 9 -21 582 41 803 53 -29 -20 148 173 hstemhm
          88 365 846 47 -21 41 hintmask 1011011100000000
          1211 -24 callgsubr
          -406 -374 -23 callgsubr
        </CharString>
        <CharString name="Gcircumflex">
          242 -29 77 callsubr
          846 47 -21 41 hintmask 10110110
          773 1925 -84 callsubr
          19 -446 -79 callsubr
        </CharString>
        <CharString name="Gcommaaccent">
          242 -354 -21 346 77 callsubr
          210 322 314 47 -21 41 hintmask 1101101010000000
          829 234 callgsubr
          -433 -308 -305 -466 -463 253 -274 478 123 113 46 58 100 hvcurveto
          hintmask 1011101001000000
          -68 callsubr
          hintmask 1101101001000000
          -50 -12 -30 -38 -27 vhcurveto
          -21 -31 -49 -19 -65 hhcurveto
          -253 -140 218 492 360 125 344 299 97 104 -37 -64 67 hvcurveto
          hintmask 1101011010000000
          106 -86 29 -121 19 -164 rrcurveto
          47 hlineto
          250 220 callgsubr
          105 9 callgsubr
          -85 -8 -15 -39 -28 266 callgsubr
          -15 hvcurveto
          hintmask 1101101010000000
          72 -94 -106 61 -186 hhcurveto
          hintmask 1101101110000000
          -11 -1592 -69 callsubr
        </CharString>
        <CharString name="Gdotaccent">
          242 -29 77 callsubr
          176 348 322 47 -21 41 hintmask 1011011100000000
          803 112 callsubr
          26 -404 -23 callgsubr
        </CharString>
        <CharString name="H">
          240 callsubr
          659 164 callsubr
          1570 1450 83 callsubr
          -74 callsubr
          76 4 127 2 119 126 118 -2 67 hflex1
          41 vlineto
          -129 6 -25 113 callsubr
          endchar
        </CharString>
        <CharString name="Hbar">
          240 callsubr
          301 41 317 164 callsubr
          1570 1450 83 callsubr
          -141 -543 286 callsubr
          41 vlineto
          -74 -22 callgsubr
          -5 callgsubr
          -69 hflex1
          -41 vlineto
          -60 callsubr
          -141 -153 -41 153 -834 vlineto
          -149 -23 -21 -130 -102 callgsubr
          492 543 -492 -95 callgsubr
          76 4 127 2 119 126 118 -2 67 275 callgsubr
          834 154 41 -154 286 callsubr
          -479 -358 rmoveto
          -301 -543 301 vlineto
          endchar
        </CharString>
        <CharString name="Hcircumflex">
          240 callsubr
          659 164 callsubr
          807 1925 -84 callsubr
          726 -475 83 callsubr
          -74 callsubr
          76 4 127 2 119 126 118 -2 67 hflex1
          41 vlineto
          -129 6 -25 113 callsubr
          endchar
        </CharString>
        <CharString name="I">
          128 callgsubr
          702 267 callgsubr
          -106 callsubr
          46 callsubr
          23 21 131 6 vhcurveto
          endchar
        </CharString>
        <CharString name="IJ">
          248 -385 41 344 41 1368 130 callsubr
          -107 319 215 326 hintmask 11110100
          702 267 callgsubr
          -106 callsubr
          46 callsubr
          23 21 131 6 vhcurveto
          753 41 rmoveto
          35 callsubr
          -126 -118 2 -67 hflex1
          -41 vlineto
          -60 callsubr
          -936 vlineto
          -283 -2 -105 -37 -106 vhcurveto
          -85 -31 -73 -62 -103 hhcurveto
          -21 -35 3 12 -18 hvcurveto
          hintmask 11101100
          70 22 35 52 60 vvcurveto
          88 -62 47 -93 -98 -66 -55 -83 -63 29 -50 72 -36 vhcurveto
          -26 52 81 -12 73 hhcurveto
          277 186 145 189 55 hvcurveto
          32 111 3 166 150 37 0 36 34 vvcurveto
          750 vlineto
          149 23 21 143 callgsubr
          endchar
        </CharString>
        <CharString name="Iacute">
          128 callgsubr
          574 1912 -93 callgsubr
          128 -462 rmoveto
          -106 callsubr
          46 callsubr
          23 21 131 6 vhcurveto
          endchar
        </CharString>
        <CharString name="Ibreve">
          186 callsubr
          128 173 hstem
          -3 callsubr
          vstem
          812 -24 callgsubr
          -134 -403 rmoveto
          -106 callsubr
          46 callsubr
          23 21 131 6 vhcurveto
          endchar
        </CharString>
        <CharString name="Icircumflex">
          128 callgsubr
          374 1925 -84 callsubr
          291 -475 rmoveto
          -106 callsubr
          46 callsubr
          23 21 131 6 vhcurveto
          endchar
        </CharString>
        <CharString name="Idieresis">
          186 callsubr
          hstemhm
          -8 309 -79 326 -65 254 callsubr
          hintmask 11101000
          147 -19 callgsubr
          65 -428 -17 callsubr
        </CharString>
        <CharString name="Idotaccent">
          186 callsubr
          hstemhm
          205 373 -356 326 hintmask 00000000
          hintmask 11100000
          392 1985 rmoveto
          -29 callsubr
          310 -535 -17 callsubr
        </CharString>
        <CharString name="Igrave">
          128 callgsubr
          197 1912 rmoveto
          -83 callgsubr
          30 callgsubr
          25 rcurveline
          -194 159 125 callgsubr
          505 -462 rmoveto
          -106 callsubr
          46 callsubr
          23 21 131 6 vhcurveto
          endchar
        </CharString>
        <CharString name="Imacron">
          186 callsubr
          227 52 hstem
          -3 callsubr
          vstem
          801 140 callsubr
          720 -227 rmoveto
          -106 callsubr
          46 callsubr
          23 21 131 6 vhcurveto
          endchar
        </CharString>
        <CharString name="Iogonek">
          -493 291 callsubr
          1368 130 callsubr
          -316 223 hintmask 11110000
          702 267 callgsubr
          -74 -22 callgsubr
          6 callsubr
          4 69 123 2 131 hhcurveto
          67 70 -1 -1 61 hvcurveto
          hintmask 11101000
          -225 -49 -133 -88 -112 42 callsubr
          60 54 79 156 52 hvcurveto
          37 -2 rlineto
          41 vlineto
          hintmask 11110000
          76 callsubr
          endchar
        </CharString>
        <CharString name="Itilde">
          186 callsubr
          122 243 callsubr
          -3 callsubr
          hintmask 11011000
          212 15 callsubr
          hintmask 11101000
          41 callgsubr
          hhcurveto
          hintmask 11011000
          159 callgsubr
          490 -442 rmoveto
          -106 callsubr
          46 callsubr
          23 21 131 6 vhcurveto
          endchar
        </CharString>
        <CharString name="J">
          132 callsubr
          691 1450 -51 callsubr
        </CharString>
        <CharString name="Jcircumflex">
          132 callsubr
          351 1925 -84 callsubr
          303 -475 -51 callsubr
        </CharString>
        <CharString name="K">
          200 0 41 687 44 638 40 hstem
          -3 callsubr
          -35 callgsubr
          endchar
        </CharString>
        <CharString name="Kcommaaccent">
          200 -354 -21 375 41 687 44 638 40 hstem
          -3 callsubr
          105 322 -35 callgsubr
          -527 -279 -69 callsubr
        </CharString>
        <CharString name="L">
          -12 0 47 1362 41 hstem
          -3 callsubr
          vstem
          14 callsubr
          endchar
        </CharString>
        <CharString name="Lacute">
          -12 0 47 1362 41 hstem
          -3 callsubr
          vstem
          574 1912 -93 callgsubr
          140 -462 -87 callsubr
          endchar
        </CharString>
        <CharString name="Lcaron">
          -12 0 47 1360 43 12 -20 hstemhm
          -3 callsubr
          237 227 hintmask 00000000
          hintmask 10111000
          1002 1462 rmoveto
          hintmask 11011000
          272 callsubr
          230 callsubr
          hintmask 10111000
          238 callgsubr
          hintmask 11010000
          -288 -12 -87 callsubr
          endchar
        </CharString>
        <CharString name="Lcommaaccent">
          -12 -354 -21 375 47 1362 130 callsubr
          15 322 hintmask 11110000
          14 callsubr
          hintmask 11111000
          4 -1522 -69 callsubr
        </CharString>
        <CharString name="Ldot">
          83 0 47 1362 41 hstem
          -3 callsubr
          404 349 vstem
          14 callsubr
          412 -494 rmoveto
          134 callgsubr
        </CharString>
        <CharString name="Lslash">
          -12 0 47 1362 41 hstem
          -3 callsubr
          vstem
          1191 324 rmoveto
          70 2 63 4 47 9 callgsubr
          -273 -40 -144 -184 -189 hhcurveto
          -100 hlineto
          -108 -21 18 128 hvcurveto
          485 vlineto
          421 244 rlineto
          47 vlineto
          -421 -244 rlineto
          508 vlineto
          149 27 21 139 296 callsubr
          35 callsubr
          -5 callgsubr
          -69 hflex1
          -41 vlineto
          -60 callsubr
          -677 vlineto
          -153 -89 rlineto
          -47 vlineto
          153 89 rlineto
          -292 vlineto
          42 callgsubr
          223 6 124 callsubr
          138 192 0 139 hflex1
          -12 128 -2 132 64 vvcurveto
          endchar
        </CharString>
        <CharString name="M">
          -31 callgsubr
        </CharString>
        <CharString name="N">
          75 callgsubr
          1419 1450 -91 callsubr
          hintmask 01111000
          -6 callsubr
          endchar
        </CharString>
        <CharString name="NULL">
          -1263 endchar
        </CharString>
        <CharString name="Nacute">
          75 callgsubr
          958 1912 -93 callgsubr
          461 -462 -91 callsubr
          hintmask 01111000
          -6 callsubr
          endchar
        </CharString>
        <CharString name="Nacute.loclPLK">
          75 callgsubr
          900 -55 callgsubr
          519 -505 -91 callsubr
          hintmask 01111000
          -6 callsubr
          endchar
        </CharString>
        <CharString name="Ncaron">
          75 callgsubr
          1198 -58 callsubr
          211 -441 -91 callsubr
          hintmask 01111000
          -6 callsubr
          endchar
        </CharString>
        <CharString name="Ncommaaccent">
          215 -354 -21 375 41 -24 -21 1413 41 255 callsubr
          328 322 296 47 hintmask 11011010
          1419 1450 -91 callsubr
          hintmask 10111110
          -6 callsubr
          -664 -1522 -69 callsubr
        </CharString>
        <CharString name="Ntilde">
          215 0 41 -24 -21 1413 41 122 243 callsubr
          225 47 946 47 hintmask 10101110
          596 15 callsubr
          hintmask 10110110
          41 callgsubr
          hhcurveto
          hintmask 10101110
          159 callgsubr
          823 -442 -91 callsubr
          hintmask 01101110
          -6 callsubr
          endchar
        </CharString>
        <CharString name="O">
          20 callgsubr
          813 1479 -101 callsubr
        </CharString>
        <CharString name="OE">
          775 -29 37 -2 41 -26 -21 709 234 callsubr
          -8 37 hstemhm
          88 340 613 325 484 41 hintmask 0101101110000000
          1932 258 callgsubr
          -34 -114 -101 -164 hhcurveto
          -59 hlineto
          -128 -26 21 149 hvcurveto
          492 85 vlineto
          156 24 -125 -117 20 180 callgsubr
          -20 -18 -154 -156 hhcurveto
          -85 483 hlineto
          149 26 21 128 vhcurveto
          43 hlineto
          163 87 -90 -281 37 200 callgsubr
          -170 0 -120 hhcurveto
          hintmask 1001011110000000
          -108 -209 0 3 -197 hvcurveto
          20 -55 -61 12 -63 hhcurveto
          -417 -295 -308 -458 -469 284 -273 426 62 62 13 19 52 hvcurveto
          hintmask 0101101110000000
          3 195 215 0 109 hhcurveto
          hintmask 0011101110000000
          133 186 0 -6 134 hvcurveto
          hintmask 0101101110000000
          303 callsubr
          -94 rmoveto
          hintmask 1001011110000000
          -132 -137 -53 -97 -211 -168 277 436 424 142 297 222 107 142 -42 -155 vhcurveto
          endchar
        </CharString>
        <CharString name="Oacute">
          20 callgsubr
          991 1912 -93 callgsubr
          -178 -433 -101 callsubr
        </CharString>
        <CharString name="Oacute.loclPLK">
          20 callgsubr
          933 -55 callgsubr
          -120 -476 -101 callsubr
        </CharString>
        <CharString name="Obreve">
          360 -29 37 1434 37 99 173 hstem
          105 callsubr
          vstem
          1229 -24 callgsubr
          -440 -374 -101 callsubr
        </CharString>
        <CharString name="Ocircumflex">
          20 callgsubr
          791 1925 -84 callsubr
          -15 -446 -101 callsubr
        </CharString>
        <CharString name="Odieresis">
          360 -29 37 1434 37 hstemhm
          88 340 -19 130 callgsubr
          -13 340 hintmask 00000000
          hintmask 11011000
          564 -19 callgsubr
          hintmask 11100100
          -241 -399 -101 callsubr
        </CharString>
        <CharString name="Ograve">
          20 callgsubr
          614 1912 rmoveto
          -83 callgsubr
          30 callgsubr
          25 rcurveline
          -194 159 125 callgsubr
          199 -433 -101 callsubr
        </CharString>
        <CharString name="Ohungarumlaut">
          20 callgsubr
          719 -44 callsubr
          -339 -435 -101 callsubr
        </CharString>
        <CharString name="Omacron">
          360 -29 37 1434 37 198 52 hstem
          105 callsubr
          vstem
          1218 140 callsubr
          414 -198 -101 callsubr
        </CharString>
        <CharString name="Omega">
          288 0 47 1395 37 hstemhm
          124 316 -294 41 924 316 hintmask 11101000
          775 234 callgsubr
          -417 -234 -193 -319 -367 301 -194 215 -359 hvcurveto
          -109 hlineto
          hintmask 11011000
          -189 -111 93 274 -44 hvcurveto
          -47 hlineto
          4 -38 2 -52 -58 vvcurveto
          -52 -4 -108 -11 -106 vhcurveto
          78 6 113 0 76 84 95 -4 114 hflex1
          33 vlineto
          hintmask 11101000
          -85 149 -166 344 400 vvcurveto
          323 87 193 248 249 87 -193 -323 -400 -166 -344 -86 -149 vhcurveto
          -33 vlineto
          115 2 95 4 84 75 113 0 78 hflex1
          60 callsubr
          58 2 52 4 38 9 callgsubr
          -274 -45 -111 -93 -188 hhcurveto
          -109 hlineto
          215 359 301 194 367 vvcurveto
          319 -234 193 -418 vhcurveto
          endchar
        </CharString>
        <CharString name="Oslash">
          20 callgsubr
          1396 1569 rmoveto
          -39 26 -146 -214 rlineto
          64 -111 -134 34 -153 hhcurveto
          -426 -299 -308 -458 -272 98 -207 166 -125 hvcurveto
          -171 -242 43 -29 171 242 rlineto
          -71 114 141 -38 161 hhcurveto
          425 300 308 458 283 -106 212 -179 123 hvcurveto
          -447 87 rmoveto
          115 103 -78 -138 72 hvcurveto
          -595 -934 rlineto
          -45 114 -26 146 169 vvcurveto
          424 147 297 229 vhcurveto
          15 -1434 rmoveto
          -118 -105 82 146 -72 hvcurveto
          594 938 rlineto
          49 -117 29 -151 -177 vvcurveto
          -424 -148 -297 -229 vhcurveto
          endchar
        </CharString>
        <CharString name="Otilde">
          360 -29 37 1434 37 93 243 callsubr
          105 callsubr
          hintmask 11011100
          629 15 callsubr
          hintmask 11101100
          41 callgsubr
          hhcurveto
          hintmask 11011100
          159 callgsubr
          184 -413 -101 callsubr
        </CharString>
        <CharString name="P">
          -9 callgsubr
        </CharString>
        <CharString name="Q">
          360 -385 222 -34 109 64 32 1434 37 hstemhm
          105 callsubr
          hintmask 10111100
          1565 25 rmoveto
          -66 -111 -89 -48 -168 -20 rrcurveto
          -6 -47 -51 -3 -56 hhcurveto
          -149 -180 19 17 -213 hvcurveto
          123 34 62 50 121 15 rrcurveto
          403 19 281 303 443 vvcurveto
          469 -290 273 -433 -426 -299 -308 -458 -434 247 -266 381 -37 vhcurveto
          hintmask 01111100
          -79 -28 -64 -39 -99 -26 rrcurveto
          18 -51 -58 11 -46 hhcurveto
          -75 -36 -21 -34 -38 40 -16 55 53 65 18 25 53 hvcurveto
          11 -1 21 -7 17 -6 rrcurveto
          hintmask 10111100
          -94 247 200 -123 225 hhcurveto
          114 93 33 47 57 hvcurveto
          73 59 47 110 22 150 rrcurveto
          -1173 707 rmoveto
          424 147 297 229 217 175 -277 -436 -424 -148 -297 -229 -216 -175 277 436 vhcurveto
          endchar
        </CharString>
        <CharString name="R">
          154 -29 107 callsubr
          381 340 hintmask 00000000
          hintmask 10011110
          1429 115 -82 callgsubr
        </CharString>
        <CharString name="Racute">
          154 -29 107 callsubr
          381 340 hintmask 00111100
          954 -57 callgsubr
          hintmask 10011110
          475 -1602 -82 callgsubr
        </CharString>
        <CharString name="Rcaron">
          154 -29 107 callsubr
          381 340 hintmask 00111100
          676 89 callgsubr
          hintmask 10011110
          790 -1457 -82 callgsubr
        </CharString>
        <CharString name="Rcommaaccent">
          154 -354 -21 346 107 callsubr
          38 322 21 340 hintmask 0000000000000000
          hintmask 1100111010000000
          1429 115 -15 callsubr
          hintmask 1001111000000000
          -149 -23 -21 -130 -102 callgsubr
          471 133 vlineto
          128 33 -120 -171 30 hvcurveto
          36 -204 rlineto
          hintmask 1011111010000000
          -171 31 99 -51 147 hhcurveto
          120 79 35 84 73 hvcurveto
          -782 1319 rmoveto
          186 68 -125 -215 -188 -51 -152 -242 hvcurveto
          -88 504 hlineto
          141 22 35 105 vhcurveto
          hintmask 1001111100000000
          66 -1522 -69 callsubr
        </CharString>
        <CharString name="S">
          -11 callgsubr
          581 1476 -103 callsubr
        </CharString>
        <CharString name="Sacute">
          -11 callgsubr
          792 1912 -93 callgsubr
          -211 -436 -103 callsubr
        </CharString>
        <CharString name="Sacute.loclPLK">
          -11 callgsubr
          734 -55 callgsubr
          -153 -479 -103 callsubr
        </CharString>
        <CharString name="Scaron">
          -11 callgsubr
          1032 1921 rmoveto
          -146 -31 -156 -54 -85 -47 -101 47 -189 54 -179 31 -10 -30 rcurveline
          179 -76 158 -124 83 -119 rrcurveto
          37 hlineto
          hintmask 1010010010000000
          85 120 156 124 178 75 rrcurveto
          -461 -415 rmoveto
          -240 -219 -116 -258 -228 170 -115 195 -124 hvcurveto
          hintmask 1010101000000000
          180 -116 127 -97 -168 vvcurveto
          -153 -111 -76 -143 121 callsubr
          9 callgsubr
          hintmask 0110100100000000
          -326 -2 -131 -6 -96 vhcurveto
          47 hlineto
          59 8 10 31 27 hhcurveto
          hintmask 1010011000000000
          16 21 -8 -21 33 hvcurveto
          -37 69 90 -39 170 hhcurveto
          275 233 129 270 222 -152 111 -194 129 hvcurveto
          -229 154 -125 67 165 vvcurveto
          130 94 79 131 vhcurveto
          hintmask 1010100100000000
          219 115 -223 -213 14 hvcurveto
          47 hlineto
          hintmask 1001100100000000
          288 4 98 7 81 vhcurveto
          hintmask 1001100010000000
          -47 hlineto
          -59 -9 -10 -31 -27 hhcurveto
          hintmask 1010100100000000
          -18 -18 9 20 -33 hvcurveto
          hintmask 1010010010000000
          38 -64 -75 41 -160 hhcurveto
          endchar
        </CharString>
        <CharString name="Scedilla">
          -67 173 callsubr
          86 80 54 -18 -21 1441 49 -18 -20 hstemhm
          120 47 -45 289 284 215 -116 317 -127 47 -36 47 hintmask 0000000000000000
          hintmask 1010100101000000
          1111 370 rmoveto
          222 -152 111 -194 129 vhcurveto
          -229 154 -125 67 165 vvcurveto
          130 94 79 131 vhcurveto
          hintmask 1010101000100000
          219 115 -223 -213 14 hvcurveto
          47 hlineto
          hintmask 1010011000100000
          288 4 98 7 81 vhcurveto
          hintmask 1010011000010000
          -47 hlineto
          -59 -9 -10 -31 -27 hhcurveto
          hintmask 1010100101000000
          260 callgsubr
          -240 -219 -116 -258 -228 170 -115 195 -124 hvcurveto
          180 -116 127 -97 -168 vvcurveto
          -153 -111 -76 -143 vhcurveto
          hintmask 1010101000100000
          283 callgsubr
          hintmask 1001101000100000
          -326 -2 -131 -6 -96 vhcurveto
          47 hlineto
          59 8 10 31 27 hhcurveto
          hintmask 1110101010100000
          16 21 -8 -21 33 hvcurveto
          65 -35 85 -37 153 -4 -56 -180 rcurveline
          -76 callgsubr
          33 104 rlineto
          hintmask 1010100101000000
          262 9 217 130 260 vvcurveto
          endchar
        </CharString>
        <CharString name="Scircumflex">
          -11 callgsubr
          592 1925 -84 callsubr
          -48 -449 -103 callsubr
        </CharString>
        <CharString name="Scommaaccent">
          -67 -354 -21 346 54 -18 -21 1441 49 -18 -20 hstemhm
          120 47 -45 289 46 322 15 317 -127 47 -36 47 hintmask 1101010001000000
          581 1476 rmoveto
          hintmask 1101001010000000
          -240 -219 -116 -258 -228 170 -115 195 -124 hvcurveto
          180 -116 127 -97 -168 vvcurveto
          -153 -111 -76 -143 vhcurveto
          hintmask 1101010001000000
          283 callgsubr
          hintmask 1011010001000000
          -326 -2 -131 -6 -96 vhcurveto
          47 hlineto
          59 8 10 31 27 hhcurveto
          hintmask 1101001010000000
          16 21 -8 -21 33 hvcurveto
          -37 69 90 -39 170 hhcurveto
          275 233 129 270 222 -152 111 -194 129 hvcurveto
          -229 154 -125 67 165 vvcurveto
          130 94 79 131 vhcurveto
          hintmask 1101010001000000
          219 115 -223 -213 14 hvcurveto
          47 hlineto
          hintmask 1100110001000000
          288 4 98 7 81 vhcurveto
          hintmask 1100110000100000
          -47 hlineto
          -59 -9 -10 -31 -27 hhcurveto
          hintmask 1101010001000000
          260 callgsubr
          hintmask 1101010101000000
          31 -1589 -69 callsubr
        </CharString>
        <CharString name="T">
          155 callsubr
          1316 1450 -81 callsubr
          endchar
        </CharString>
        <CharString name="Tbar">
          110 295 callgsubr
          653 47 hstem
          523 326 413 41 vstem
          1318 89 callsubr
          -653 -288 -41 288 -475 60 callgsubr
          81 3 142 3 151 151 152 -3 87 -65 callgsubr
          -182 2 -37 24 167 vvcurveto
          475 270 41 -270 653 -18 callgsubr
          endchar
        </CharString>
        <CharString name="Tcaron">
          155 callsubr
          1107 -58 callsubr
          199 -441 -81 callsubr
          endchar
        </CharString>
        <CharString name="Tcedilla">
          105 173 callsubr
          86 109 41 1362 47 hstemhm
          521 326 -90 215 288 41 hintmask 11111010
          1316 89 callsubr
          250 callgsubr
          3 76 131 3 141 hhcurveto
          -67 -215 rlineto
          hintmask 11110110
          -76 callgsubr
          44 139 rlineto
          141 139 -3 -3 81 hvcurveto
          41 vlineto
          hintmask 11111010
          -182 2 -37 24 167 vvcurveto
          1169 -18 callgsubr
          endchar
        </CharString>
        <CharString name="Thorn">
          8 0 41 259 41 782 39 247 41 hstem
          -3 callsubr
          342 340 vstem
          548 300 rmoveto
          70 hlineto
          483 129 237 232 250 -186 143 -381 -23 -41 -1 -1 -51 hvcurveto
          73 vlineto
          149 23 21 131 6 vhcurveto
          41 vlineto
          -106 callsubr
          64 906 rmoveto
          204 74 -129 -244 -219 -51 -190 -242 hvcurveto
          -49 781 hlineto
          endchar
        </CharString>
        <CharString name="U">
          59 callgsubr
          1373 1450 -105 callsubr
        </CharString>
        <CharString name="Uacute">
          59 callgsubr
          914 1912 -93 callgsubr
          459 -462 -105 callsubr
        </CharString>
        <CharString name="Ubreve">
          147 -29 72 1366 41 128 173 hstem
          192 325 656 47 vstem
          1152 -24 callgsubr
          197 -403 -105 callsubr
        </CharString>
        <CharString name="Ucircumflex">
          59 callgsubr
          714 1925 -84 callsubr
          622 -475 -105 callsubr
        </CharString>
        <CharString name="Udieresis">
          147 -29 72 1366 41 hstemhm
          192 325 -185 130 callgsubr
          41 47 hintmask 00000000
          hintmask 11011100
          487 -19 callgsubr
          396 -428 135 callsubr
          hintmask 11100100
          23 callgsubr
        </CharString>
        <CharString name="Ugrave">
          59 callgsubr
          537 1912 rmoveto
          -83 callgsubr
          30 callgsubr
          25 rcurveline
          -194 159 125 callgsubr
          836 -462 -105 callsubr
        </CharString>
        <CharString name="Uhungarumlaut">
          59 callgsubr
          642 -44 callsubr
          298 -464 -105 callsubr
        </CharString>
        <CharString name="Umacron">
          147 -29 72 1366 41 227 52 hstem
          192 325 656 47 vstem
          1141 140 callsubr
          1051 -227 -105 callsubr
        </CharString>
        <CharString name="Uogonek">
          147 230 callgsubr
          243 72 1366 41 hstemhm
          192 325 -23 223 456 47 hintmask 11110100
          1195 1444 rmoveto
          -73 -95 2 4 -53 hvcurveto
          -35 callsubr
          105 callgsubr
          vhcurveto
          773 vlineto
          149 27 21 139 296 callsubr
          -76 -4 -125 -2 -123 -127 -124 2 -70 hflex1
          280 callgsubr
          -56 callgsubr
          -643 vlineto
          -263 28 -146 133 -106 vhcurveto
          -81 101 140 -23 128 hhcurveto
          10 hlineto
          hintmask 11101100
          -151 -51 -87 -74 -91 42 callsubr
          57 49 75 138 51 hvcurveto
          108 30 77 60 47 78 rrcurveto
          64 107 20 149 178 vvcurveto
          543 vlineto
          198 23 54 130 18 vhcurveto
          41 vlineto
          hintmask 11110100
          -4 -42 -71 -2 -65 hhcurveto
          endchar
        </CharString>
        <CharString name="Uring">
          147 -29 72 1366 41 180 43 313 43 hstemhm
          192 325 -6 57 330 58 217 47 hintmask 11111011
          732 2029 rmoveto
          hintmask 11110111
          -116 -105 -76 -122 -125 105 -76 294 callgsubr
          76 125 hvcurveto
          hintmask 11111011
          122 -105 76 -119 vhcurveto
          hintmask 11110111
          -43 296 callgsubr
          -101 -105 -86 -51 -80 -78 -86 51 105 101 86 56 78 hvcurveto
          641 -536 135 callsubr
          hintmask 11111011
          23 callgsubr
        </CharString>
        <CharString name="Utilde">
          147 -29 72 1366 41 122 243 callsubr
          192 325 656 47 hintmask 11011100
          552 15 callsubr
          hintmask 11101100
          41 callgsubr
          hhcurveto
          hintmask 11011100
          159 callgsubr
          821 -442 -105 callsubr
        </CharString>
        <CharString name="V">
          105 17 -21 1413 41 hstem
          -25 1413 vstem
          1232 1444 rmoveto
          -85 -78 2 4 -92 hvcurveto
          -41 vlineto
          109 -3 63 -44 -114 vvcurveto
          -61 -18 -81 -39 -106 vhcurveto
          -252 -680 -362 917 rlineto
          -16 41 -8 32 23 vvcurveto
          59 49 13 95 4 121 callgsubr
          -113 -117 2 -82 hflex1
          -41 vlineto
          40 -2 50 -31 39 -98 522 -1282 rcurveline
          22 1 24 1 25 24 25 -1 22 hflex1
          433 1170 55 153 73 67 62 callsubr
        </CharString>
        <CharString name="W">
          127 callsubr
          1838 1444 -102 callsubr
        </CharString>
        <CharString name="Wacute">
          127 callsubr
          1316 -57 callgsubr
          522 -273 -102 callsubr
        </CharString>
        <CharString name="Wcircumflex">
          127 callsubr
          984 -13 callgsubr
          854 -264 -102 callsubr
        </CharString>
        <CharString name="Wdieresis">
          719 17 -21 1413 41 119 309 hstem
          625 130 callgsubr
          vstem
          780 -19 callsubr
          568 -125 -102 callsubr
        </CharString>
        <CharString name="Wgrave">
          127 callsubr
          722 1717 rmoveto
          30 callgsubr
          25 rcurveline
          -194 159 125 callgsubr
          -83 callgsubr
          1116 -273 -102 callsubr
        </CharString>
        <CharString name="X">
          -48 callsubr
        </CharString>
        <CharString name="Y">
          139 callsubr
          1107 1445 -86 callsubr
        </CharString>
        <CharString name="Yacute">
          139 callsubr
          968 -57 callgsubr
          139 -272 -86 callsubr
        </CharString>
        <CharString name="Ycircumflex">
          139 callsubr
          636 -13 callgsubr
          471 -263 -86 callsubr
        </CharString>
        <CharString name="Ydieresis">
          12 0 41 1367 43 118 309 hstemhm
          277 309 -87 326 -57 254 callsubr
          hintmask 11110100
          432 -19 callsubr
          185 -124 rmoveto
          -85 -77 2 4 -93 hvcurveto
          -41 vlineto
          104 -3 67 -36 -97 vvcurveto
          -59 -25 -82 -56 -111 vhcurveto
          -159 -318 -312 598 rlineto
          -9 18 -4 15 12 vvcurveto
          53 73 8 82 vhcurveto
          43 vlineto
          -117 -6 -148 -4 -120 -94 -76 4 -72 173 callgsubr
          40 -23 -91 50 hvcurveto
          hintmask 11001000
          394 -729 rlineto
          -348 -95 callgsubr
          67 4 125 2 126 114 128 -2 73 -65 callgsubr
          -129 -46 callgsubr
          477 vlineto
          242 480 75 148 62 245 callgsubr
          hintmask 11110100
          -4 -41 -55 -2 -60 hhcurveto
          endchar
        </CharString>
        <CharString name="Ygrave">
          139 callsubr
          374 1717 rmoveto
          30 callgsubr
          25 rcurveline
          -194 159 125 callgsubr
          -83 callgsubr
          733 -272 -86 callsubr
        </CharString>
        <CharString name="Z">
          150 callsubr
          1140 1409 -88 callsubr
        </CharString>
        <CharString name="Zacute">
          150 callsubr
          800 1912 -93 callgsubr
          340 -503 -88 callsubr
        </CharString>
        <CharString name="Zacute.loclPLK">
          150 callsubr
          742 -55 callgsubr
          398 -546 -88 callsubr
        </CharString>
        <CharString name="Zcaron">
          150 callsubr
          1040 -58 callsubr
          90 -482 -88 callsubr
        </CharString>
        <CharString name="Zdotaccent">
          -31 0 47 1356 47 hstemhm
          431 373 hintmask 00000000
          hintmask 11100000
          618 1985 rmoveto
          -29 callsubr
          522 -576 -88 callsubr
        </CharString>
        <CharString name="a">
          27 callgsubr
          50 callsubr
          hintmask 00110110
          538 1088 -77 callsubr
        </CharString>
        <CharString name="a.smcp">
          66 callgsubr
          hstem
          -23 1323 vstem
          684 1249 -106 callgsubr
        </CharString>
        <CharString name="aacute">
          27 callgsubr
          157 -20 50 callsubr
          hintmask 00111011
          756 -93 callsubr
          -218 -586 -94 callsubr
        </CharString>
        <CharString name="aacute.smcp">
          66 callgsubr
          hstem
          -23 1323 vstem
          898 -59 callgsubr
          -214 -300 -106 callgsubr
        </CharString>
        <CharString name="abreve">
          27 callgsubr
          184 194 50 callsubr
          hintmask 00111011
          887 -23 callsubr
          -383 -507 -94 callsubr
        </CharString>
        <CharString name="abreve.smcp">
          66 callgsubr
          171 172 hstem
          -23 1323 vstem
          635 93 callgsubr
          49 -151 -106 callgsubr
        </CharString>
        <CharString name="acircumflex">
          27 callgsubr
          190 -20 50 callsubr
          hintmask 00111011
          513 -78 callgsubr
          -12 -591 -94 callsubr
        </CharString>
        <CharString name="acircumflex.smcp">
          66 callgsubr
          hstem
          -23 1323 vstem
          598 -14 callsubr
          86 -283 -106 callgsubr
        </CharString>
        <CharString name="acute">
          -806 1245 -20 hstem
          41 400 vstem
          404 -93 callsubr
          endchar
        </CharString>
        <CharString name="acute.case">
          -700 1581 347 hstem
          16 509 vstem
          348 1912 -93 callgsubr
          endchar
        </CharString>
        <CharString name="acute.loclPLK">
          -911 1221 471 hstem
          52 264 vstem
          252 -59 callsubr
          endchar
        </CharString>
        <CharString name="acute.loclPLK.case">
          -948 1554 410 hstem
          51 249 vstem
          233 -55 callgsubr
          endchar
        </CharString>
        <CharString name="acute.loclPLK.smcp">
          -948 1432 409 hstem
          51 249 vstem
          233 -55 callsubr
          endchar
        </CharString>
        <CharString name="acute.smcp">
          -700 1413 347 hstem
          176 509 vstem
          508 -92 callsubr
          endchar
        </CharString>
        <CharString name="adieresis">
          27 callgsubr
          hstemhm
          59 291 -238 312 -277 178 callsubr
          -306 295 hintmask 0011001010000000
          301 1557 rmoveto
          -34 callgsubr
          hintmask 0011010100000000
          466 hmoveto
          -34 callgsubr
          -229 -469 rmoveto
          106 callgsubr
          -67 -39 -48 -57 -75 vvcurveto
          -90 56 -68 89 101 66 62 85 83 -48 53 -73 25 vhcurveto
          36 37 60 14 49 hhcurveto
          hintmask 0011100010000000
          121 46 -76 -107 hvcurveto
          -160 vlineto
          -88 -118 -39 -151 -57 vhcurveto
          -190 -70 -98 -83 -148 vvcurveto
          -149 106 -84 153 115 117 51 115 70 vhcurveto
          -88 1 46 -78 150 hhcurveto
          hintmask 1001001010000000
          104 68 25 50 62 hvcurveto
          -21 35 rlineto
          -18 -23 -23 -17 -29 hhcurveto
          -33 -11 25 66 hvcurveto
          557 vlineto
          143 -13 82 -60 62 vhcurveto
          hintmask 0011010100000000
          68 -66 -102 24 -132 hhcurveto
          hintmask 0101100010000000
          78 -888 rmoveto
          -61 -43 -45 -22 -50 hhcurveto
          -73 -55 46 113 123 67 67 72 53 hvcurveto
          69 43 39 27 19 31 rrcurveto
          endchar
        </CharString>
        <CharString name="adieresis.smcp">
          66 callgsubr
          203 308 hstem
          237 130 callgsubr
          vstem
          392 -20 callsubr
          -198 -183 -106 callgsubr
        </CharString>
        <CharString name="ae">
          243 -29 169 -160 151 502 39 372 44 -41 41 hstemhm
          64 291 -255 307 198 298 278 258 hintmask 1011010110000000
          1149 140 rmoveto
          -119 -126 111 285 33 1 34 3 30 hvcurveto
          531 hlineto
          321 -138 134 -227 -128 -104 -41 -74 -77 vhcurveto
          87 -56 -88 28 -127 hhcurveto
          -118 -92 -28 -41 -70 hvcurveto
          hintmask 1010101110000000
          -67 -38 -47 -59 -75 vvcurveto
          -85 57 -65 87 96 67 62 86 78 -44 50 -73 24 vhcurveto
          36 37 61 14 46 hhcurveto
          118 53 -76 -107 hvcurveto
          -160 vlineto
          -87 -110 -39 -147 -59 vhcurveto
          hintmask 0111010110000000
          -185 -70 -99 -84 -154 vvcurveto
          -150 110 -81 150 158 105 74 143 79 vhcurveto
          hintmask 1011010110000000
          -155 74 136 -71 169 hhcurveto
          212 124 283 callsubr
          -74 -93 -28 -73 hhcurveto
          -87 904 rmoveto
          86 37 -172 -200 -4 hvcurveto
          -278 hlineto
          265 14 63 107 82 hhcurveto
          hintmask 0111010110000000
          -413 -813 rmoveto
          -79 -51 -56 -21 -60 hhcurveto
          -78 -49 48 99 116 66 69 82 61 hvcurveto
          37 28 44 35 21 33 3 -26 rcurveline
          -2 -24 -1 -25 -26 vvcurveto
          -110 15 -93 28 -75 vhcurveto
          endchar
        </CharString>
        <CharString name="ae.smcp">
          438 0 41 -41 47 559 41 551 47 hstemhm
          -21 324 444 313 hintmask 01110100
          1593 253 callsubr
          -51 -93 -183 hhcurveto
          -80 305 callgsubr
          76 vlineto
          133 12 163 callgsubr
          -23 -4 -123 -135 hhcurveto
          -76 299 callgsubr
          59 hlineto
          146 71 -83 -243 33 -1 callgsubr
          31 -2 47 49 vvcurveto
          48 4 100 10 98 vhcurveto
          -6 -116 -161 0 -114 hhcurveto
          -81 -147 0 2 -147 hvcurveto
          64 109 rlineto
          -47 hlineto
          -64 -108 rlineto
          -55 -54 1 2 -50 hvcurveto
          -41 vlineto
          60 -3 37 -6 23 -20 -594 -1003 rcurveline
          hintmask 10111100
          -54 -91 -44 -38 -43 -2 rrcurveto
          hintmask 01111100
          -41 vlineto
          35 4 55 2 47 74 72 -2 41 hflex1
          hintmask 10111100
          41 vlineto
          -94 4 -49 20 50 vvcurveto
          25 12 32 24 41 vhcurveto
          231 393 rlineto
          320 -389 hlineto
          hintmask 01110100
          -149 -20 -21 -117 -36 callgsubr
          192 6 256 0 117 126 178 0 128 hflex1
          60 callsubr
          -846 381 rmoveto
          -296 hlineto
          286 487 rlineto
          8 -25 2 -34 -47 vvcurveto
          endchar
        </CharString>
        <CharString name="agrave">
          27 callgsubr
          50 callsubr
          hintmask 00110110
          275 -37 callgsubr
          263 -586 -77 callsubr
        </CharString>
        <CharString name="agrave.smcp">
          66 callgsubr
          hstem
          -23 1323 vstem
          330 1549 rmoveto
          30 callgsubr
          26 rcurveline
          -194 158 125 callgsubr
          -83 callgsubr
          354 -300 -106 callgsubr
        </CharString>
        <CharString name="amacron">
          27 callgsubr
          319 51 50 callsubr
          hintmask 00111011
          870 167 callgsubr
          356 -319 -94 callsubr
        </CharString>
        <CharString name="amacron.smcp">
          66 callgsubr
          301 51 hstem
          -23 1323 vstem
          1042 141 callgsubr
          461 -281 -106 callgsubr
        </CharString>
        <CharString name="ampersand">
          575 -29 213 148 35 494 97 461 35 -12 37 -25 -20 hstemhm
          85 227 -43 178 219 73 -32 306 -74 322 -36 323 -75 72 193 69 hintmask 1101001010001100
          1807 1190 rmoveto
          hintmask 1100101010010100
          183 -135 106 -191 -155 -101 -63 -109 -86 66 -50 94 92 71 48 83 vhcurveto
          hintmask 1100011010010100
          50 -34 54 -65 26 vhcurveto
          hintmask 1100101010010100
          6 12 20 4 26 hhcurveto
          115 116 -76 -110 -102 -111 -52 -197 -49 hvcurveto
          -97 -33 -125 -28 -84 -21 rrcurveto
          -284 -56 -174 -108 -212 vvcurveto
          -179 141 -84 164 vhcurveto
          hintmask 1111001010101100
          160 130 305 callsubr
          -86 -64 36 -48 68 -22 hvcurveto
          -14 -13 -42 -7 -27 hhcurveto
          -104 -118 63 102 103 120 49 211 46 hvcurveto
          61 19 105 28 82 24 rrcurveto
          145 -68 10 -130 -62 vvcurveto
          -234 -290 -123 -274 -365 -232 128 270 171 89 95 128 65 vhcurveto
          -19 29 55 -33 47 hhcurveto
          33 25 16 27 33 -27 21 -49 hvcurveto
          hintmask 1111000101001100
          -28 -41 -5 -11 -46 hvcurveto
          -63 72 -17 76 61 vvcurveto
          180 113 88 143 60 53 -16 -20 22 vhcurveto
          -78 -16 -53 -62 -69 vvcurveto
          -85 68 -42 81 84 73 53 84 81 -61 54 -62 31 vhcurveto
          25 -50 -58 17 -105 hhcurveto
          -206 -202 -90 -176 -125 102 -82 130 -51 hvcurveto
          hintmask 1111001010001100
          -116 -28 -300 -115 -306 vvcurveto
          -315 300 -195 453 424 283 216 286 154 -67 130 -125 55 vhcurveto
          38 13 rlineto
          hintmask 1101001010001100
          255 53 161 101 211 vvcurveto
          endchar
        </CharString>
        <CharString name="ampersand.smcp">
          536 -29 172 107 35 445 97 412 35 38 36 hstemhm
          83 325 -170 215 211 306 -248 65 183 322 -89 322 -30 55 141 67 hintmask 1101100010011000
          1758 1073 rmoveto
          182 -123 93 -176 vhcurveto
          hintmask 1101100010101000
          -154 -102 -63 -110 -83 63 -52 98 90 71 49 80 57 -37 50 -62 25 hvcurveto
          6 13 20 5 23 hhcurveto
          105 104 -62 -104 -116 -148 -39 -136 -42 hvcurveto
          -89 -33 -125 -37 -78 -21 rrcurveto
          -198 -53 -195 -92 -216 vvcurveto
          -164 109 -83 180 vhcurveto
          hintmask 1111110011011000
          145 136 305 callsubr
          -87 -61 35 -50 69 -22 hvcurveto
          -14 -14 -36 -7 -33 hhcurveto
          -103 -101 60 96 109 142 44 200 46 hvcurveto
          238 73 rlineto
          99 -44 29 -80 -86 vvcurveto
          -264 -273 -96 -289 -322 -203 124 269 127 51 71 64 49 vhcurveto
          -20 29 55 -33 47 hhcurveto
          32 25 14 30 30 -26 23 -49 hvcurveto
          hintmask 1111101100011000
          -29 -40 -1 -15 -46 hvcurveto
          -59 60 -9 63 63 vvcurveto
          156 112 86 119 51 44 -17 -19 16 vhcurveto
          -82 -16 -49 -63 -69 vvcurveto
          -83 68 -43 79 88 71 52 86 82 -64 52 -58 31 vhcurveto
          24 -48 -56 18 -94 hhcurveto
          -208 -204 -76 -160 -120 114 -75 142 -44 hvcurveto
          hintmask 1111110010011000
          -116 -24 -295 -113 -275 vvcurveto
          -262 297 -154 415 470 285 197 294 105 -44 109 -106 47 vhcurveto
          43 13 rlineto
          hintmask 1101100010011000
          145 39 170 81 217 vvcurveto
          endchar
        </CharString>
        <CharString name="aogonek">
          -203 230 callgsubr
          258 131 -110 -21 1061 41 hstemhm
          59 291 -238 312 131 223 -162 308 callsubr
          hintmask 10110010
          863 -272 rmoveto
          -54 -31 28 55 58 38 70 117 54 hvcurveto
          13 6 9 5 7 5 32 12 29 18 28 22 -21 35 rcurveline
          hintmask 10110101
          -18 -23 -23 -17 -29 hhcurveto
          -33 -11 25 66 hvcurveto
          557 vlineto
          143 -13 82 -60 62 vhcurveto
          68 -66 -102 24 -132 hhcurveto
          -85 callsubr
          hintmask 10111010
          -190 -70 -98 -83 -148 vvcurveto
          -149 106 -84 153 115 117 51 115 70 vhcurveto
          1 -87 45 -78 147 -1 rrcurveto
          -164 -51 -94 -80 -100 102 callsubr
          -28 29 rlineto
          hintmask 10110010
          153 callgsubr
          hintmask 11011001
          -247 472 rmoveto
          -61 -43 -45 -22 -50 hhcurveto
          -73 -55 46 113 123 67 67 72 53 hvcurveto
          69 43 39 27 19 31 rrcurveto
          endchar
        </CharString>
        <CharString name="aogonek.smcp">
          21 -385 113 272 117 callgsubr
          hstem
          779 223 vstem
          1217 4 rmoveto
          32 -1 28 -2 23 -1 rrcurveto
          41 vlineto
          -40 2 -44 32 -45 97 -487 1077 rcurveline
          -16 -2 -15 0 -16 -16 -16 0 -15 hflex1
          -433 -988 -61 -139 -50 -67 -69 -14 rlinecurve
          -41 vlineto
          38 4 77 2 51 86 71 87 callsubr
          -110 6 -68 33 100 vvcurveto
          51 18 69 40 91 vhcurveto
          24 55 rlineto
          430 hlineto
          102 -233 rlineto
          18 -39 9 -31 -24 vvcurveto
          -55 -47 -19 -86 179 callsubr
          4 69 123 2 131 hhcurveto
          113 -1 rlineto
          -230 -49 -135 -88 -113 43 callgsubr
          61 55 80 160 52 hvcurveto
          -523 483 rmoveto
          -394 hlineto
          198 449 rlineto
          endchar
        </CharString>
        <CharString name="approxequal">
          94 346 219 -29 220 -51 219 -30 220 -38 -20 20 7 hstemhm
          121 1120 hintmask 00000000
          hintmask 10010010
          433 1114 rmoveto
          -164 -120 -152 -231 -28 hvcurveto
          36 -8 rlineto
          119 49 86 52 110 hhcurveto
          hintmask 10100110
          195 146 -189 211 hhcurveto
          152 110 147 224 25 hvcurveto
          -36 7 rlineto
          -114 -43 -73 -45 -92 hhcurveto
          hintmask 10010010
          -199 -149 190 -216 hhcurveto
          hintmask 01001010
          -25 -358 rmoveto
          -152 -110 -148 -223 -25 hvcurveto
          36 -8 rlineto
          110 42 71 49 95 hhcurveto
          hintmask 10101010
          200 149 -190 216 hhcurveto
          164 120 152 231 27 hvcurveto
          -36 8 rlineto
          -123 -51 -87 -49 -107 hhcurveto
          hintmask 01001010
          -194 -147 191 -211 hhcurveto
          endchar
        </CharString>
        <CharString name="aring">
          27 callgsubr
          145 43 313 43 hstemhm
          59 291 -238 312 -113 57 248 295 -213 58 hintmask 0000000000000000
          hintmask 0011110010100000
          532 24 callgsubr
          6 -501 rmoveto
          106 callgsubr
          hintmask 0011110101000000
          -67 -39 -48 -57 -75 vvcurveto
          -90 56 -68 89 101 66 62 85 83 -48 53 -73 25 vhcurveto
          36 37 60 14 49 hhcurveto
          121 46 -76 -107 hvcurveto
          -160 vlineto
          -88 -118 -39 -151 -57 vhcurveto
          hintmask 0011111001000000
          -190 -70 -98 -83 -148 vvcurveto
          -149 106 -84 153 115 117 51 115 70 vhcurveto
          -88 1 46 -78 150 hhcurveto
          hintmask 1001110011000000
          104 68 25 50 62 hvcurveto
          -21 35 rlineto
          -18 -23 -23 -17 -29 hhcurveto
          -33 -11 25 66 hvcurveto
          557 vlineto
          143 -13 82 -60 62 vhcurveto
          hintmask 0011110010100000
          68 -66 -102 24 -132 hhcurveto
          hintmask 0101111001000000
          78 -888 rmoveto
          -61 -43 -45 -22 -50 hhcurveto
          -73 -55 46 113 123 67 67 72 53 hvcurveto
          69 43 39 27 19 31 rrcurveto
          endchar
        </CharString>
        <CharString name="aring.smcp">
          66 callgsubr
          155 43 314 43 hstem
          416 57 330 58 vstem
          637 1384 rmoveto
          119 105 77 124 243 callgsubr
          276 callsubr
          hvcurveto
          357 138 callsubr
          47 -492 -106 callgsubr
        </CharString>
        <CharString name="arrowboth">
          119 524 33 hstem
          51 1280 vstem
          872 924 rmoveto
          58 -122 29 -120 2 -125 rrcurveto
          -539 hlineto
          2 125 29 120 57 122 83 callgsubr
          -56 121 -29 120 -3 125 rrcurveto
          539 hlineto
          -3 -125 -29 -120 -57 -121 rrcurveto
          35 hlineto
          94 207 136 118 194 58 -194 57 -136 119 -94 207 rrcurveto
          endchar
        </CharString>
        <CharString name="arrowdown">
          -251 1 -21 hstem
          489 33 vstem
          506 829 rmoveto
          256 callsubr
          207 -94 119 -135 57 -195 57 195 119 135 207 94 252 callgsubr
          -184 vmoveto
          256 callsubr
          188 -86 116 -119 62 -168 rrcurveto
          -258 vlineto
          -125 3 -120 29 -121 56 rrcurveto
          -35 vlineto
          207 -94 119 -135 57 -194 57 194 119 135 207 94 rrcurveto
          35 vlineto
          -122 -57 -120 -29 -125 -2 rrcurveto
          256 vlineto
          62 169 116 120 189 86 252 callgsubr
          endchar
        </CharString>
        <CharString name="arrowdownleft">
          138 1 -21 490 32 98 33 hstem
          624 32 98 33 vstem
          735 582 rmoveto
          35 76 17 76 83 vvcurveto
          89 -20 96 -42 112 vhcurveto
          -25 -24 rlineto
          36 -95 18 -89 -85 vvcurveto
          -105 -28 -100 -54 -98 vhcurveto
          54 99 100 28 105 hhcurveto
          84 88 -17 -36 95 hvcurveto
          25 24 rlineto
          42 -112 -97 20 -89 hhcurveto
          -82 -76 -17 -34 -77 hvcurveto
          -131 -131 rmoveto
          35 77 17 77 83 vvcurveto
          89 -20 96 -40 110 vhcurveto
          -25 -25 rlineto
          35 -94 18 -88 -84 vvcurveto
          -87 -19 -84 -38 -83 vhcurveto
          -183 -185 -86 92 -64 104 -48 126 rlinecurve
          -24 -24 rlineto
          36 -95 17 -88 -84 vvcurveto
          -105 -28 -100 -54 -99 vhcurveto
          54 98 100 28 105 hhcurveto
          85 89 -18 -36 95 hvcurveto
          24 25 -126 47 -105 64 -91 87 rlinecurve
          183 182 rlineto
          38 84 85 19 89 hhcurveto
          83 87 -17 -35 94 hvcurveto
          25 24 rlineto
          40 -110 -97 20 -89 hhcurveto
          -83 -77 -17 -34 -77 hvcurveto
          endchar
        </CharString>
        <CharString name="arrowdownright">
          138 385 61 25 32 hstemhm
          745 32 25 61 hintmask 00000000
          hintmask 11110000
          1008 217 rmoveto
          15 -6 14 -8 15 -8 -8 15 -8 15 -7 14 rrcurveto
          2 vlineto
          -39 84 -20 85 88 vvcurveto
          85 18 89 36 95 vhcurveto
          -25 24 -50 -135 -37 -111 -26 -101 rlinecurve
          -16 53 -7 54 55 vvcurveto
          85 17 88 36 95 vhcurveto
          -25 25 -54 -147 -29 -119 -6 -111 rlinecurve
          hintmask 01100000
          -16 56 -9 57 58 vvcurveto
          84 18 88 35 94 vhcurveto
          -25 24 rlineto
          -40 -110 -20 -96 -88 vvcurveto
          -84 17 -77 35 -77 vhcurveto
          35 -77 -78 17 -83 hhcurveto
          -89 -96 -20 -40 -110 hvcurveto
          25 -25 rlineto
          35 94 88 18 83 hhcurveto
          58 57 -9 -16 55 hvcurveto
          hintmask 11100000
          -111 -6 -118 -29 -146 -55 24 -24 rcurveline
          36 95 88 17 84 hhcurveto
          56 55 -8 -15 53 hvcurveto
          -102 -26 -111 -37 -135 -50 25 -25 rcurveline
          36 95 88 17 85 hhcurveto
          hintmask 11110000
          89 85 -19 -40 84 hvcurveto
          endchar
        </CharString>
        <CharString name="arrowleft">
          132 524 33 hstem
          51 1221 vstem
          717 541 rmoveto
          164 61 110 115 96 207 rrcurveto
          -34 hlineto
          -87 -189 -120 -116 -169 -62 rrcurveto
          -255 hlineto
          2 125 29 120 57 122 83 callgsubr
          -56 121 -29 120 -3 125 rrcurveto
          258 hlineto
          167 -63 119 -114 87 -189 rrcurveto
          34 hlineto
          -96 207 -110 114 -164 62 rrcurveto
          184 hmoveto
          164 61 111 115 96 207 83 callgsubr
          -96 207 -111 114 -164 62 rrcurveto
          endchar
        </CharString>
        <CharString name="arrowright">
          132 524 33 hstem
          123 1221 vstem
          582 541 rmoveto
          288 callgsubr
          -35 hlineto
          96 -207 111 -115 164 -61 -164 -62 -111 -114 -96 -207 262 callsubr
          rrcurveto
          303 383 rmoveto
          57 -122 29 -120 2 -125 rrcurveto
          -255 hlineto
          -169 62 -120 116 -87 189 rrcurveto
          -34 hlineto
          96 -207 110 -115 164 -61 -164 -62 -110 -114 -96 -207 rrcurveto
          34 hlineto
          87 189 119 114 167 63 rrcurveto
          258 hlineto
          -3 -125 -29 -120 -56 -121 262 callsubr
          288 callgsubr
          endchar
        </CharString>
        <CharString name="arrowup">
          -251 1 -21 hstem
          489 33 vstem
          889 776 rmoveto
          -207 94 -119 136 -57 194 -57 -194 -119 -136 -207 -94 rrcurveto
          -35 vlineto
          121 57 120 29 125 2 rrcurveto
          -257 vlineto
          -62 -168 -116 -119 -188 -86 rrcurveto
          -35 vlineto
          207 96 114 111 62 164 61 -164 115 -111 207 -96 rrcurveto
          35 vlineto
          -189 86 -116 120 -62 169 rrcurveto
          255 vlineto
          125 -2 120 -28 122 -58 rrcurveto
          -383 -303 rmoveto
          -57 -194 -119 -135 -207 -95 rrcurveto
          -34 vlineto
          207 96 114 110 62 164 61 -164 115 -110 207 -96 rrcurveto
          34 vlineto
          -207 95 -119 135 -57 194 rrcurveto
          endchar
        </CharString>
        <CharString name="arrowupleft">
          138 591 32 25 61 hstemhm
          538 61 25 32 hintmask 10010000
          1112 676 rmoveto
          -35 -94 -88 -18 -83 hhcurveto
          -58 -57 9 16 -55 hvcurveto
          hintmask 11110000
          111 6 118 29 146 55 -24 24 rcurveline
          -36 -95 -88 -17 -84 hhcurveto
          -56 -55 8 15 -53 hvcurveto
          102 26 111 37 135 50 -25 25 rcurveline
          -36 -95 -88 -17 -85 hhcurveto
          -89 -85 19 40 -84 hvcurveto
          -1 1 -15 6 -14 8 -15 8 rlinecurve
          8 -15 8 -15 7 -14 rrcurveto
          -2 vlineto
          39 -84 20 -85 -88 vvcurveto
          -85 -18 -89 -36 -95 vhcurveto
          25 -24 50 135 37 111 26 101 rlinecurve
          16 -53 7 -54 -55 vvcurveto
          -85 -17 -88 -36 -95 vhcurveto
          25 -25 54 147 29 119 6 111 rlinecurve
          hintmask 10010000
          16 -56 9 -57 -58 vvcurveto
          -84 -18 -88 -35 -94 vhcurveto
          25 -24 rlineto
          40 110 20 96 88 vvcurveto
          84 -17 77 -35 77 vhcurveto
          -35 77 78 -17 83 hhcurveto
          89 96 20 40 110 hvcurveto
          endchar
        </CharString>
        <CharString name="arrowupright">
          138 591 32 25 61 hstemhm
          745 32 25 61 hintmask 00000000
          hintmask 11110000
          1030 854 rmoveto
          6 15 8 15 8 15 -15 -8 -14 -8 -15 -6 -1 -1 rcurveline
          -40 -84 -85 -19 -89 hhcurveto
          -85 -88 17 36 -95 hvcurveto
          -25 -25 135 -50 111 -37 102 -26 rlinecurve
          -15 -53 -55 -8 -56 hhcurveto
          -84 -88 17 36 -95 hvcurveto
          -24 -24 146 -55 118 -29 111 -6 rlinecurve
          hintmask 10100000
          -16 -55 -57 -9 -58 hhcurveto
          -83 -88 18 35 -94 hvcurveto
          -25 -25 rlineto
          -40 110 96 -20 89 hhcurveto
          83 78 17 35 77 hvcurveto
          -35 -77 -17 -77 -84 vvcurveto
          -88 20 -96 40 -110 vhcurveto
          25 24 rlineto
          -35 94 -18 88 84 vvcurveto
          58 9 57 16 56 vhcurveto
          hintmask 10110000
          6 -111 29 -119 54 -147 25 25 rcurveline
          -36 95 -17 88 85 vvcurveto
          55 7 54 16 53 vhcurveto
          26 -101 37 -111 50 -135 25 24 rcurveline
          -36 95 -18 89 85 vvcurveto
          hintmask 11110000
          88 20 85 39 84 vhcurveto
          endchar
        </CharString>
        <CharString name="asciicircum">
          -180 1081 -20 hstem
          116 851 vstem
          523 1081 rmoveto
          -83 -159 -151 -164 -173 -94 16 -29 rcurveline
          141 41 145 68 83 63 99 -63 177 -68 174 -41 16 29 rcurveline
          -174 95 -152 164 -81 158 rrcurveto
          endchar
        </CharString>
        <CharString name="asciicircum.case">
          -358 1074 -20 425 -20 hstem
          -10 925 vstem
          434 234 callgsubr
          -90 -154 -166 -159 -188 -92 12 -30 rcurveline
          156 48 164 84 90 78 106 -78 196 -84 189 -48 12 30 rcurveline
          -189 93 -167 159 -88 153 rrcurveto
          endchar
        </CharString>
        <CharString name="asciicircum.smcp">
          -131 endchar
        </CharString>
        <CharString name="asciitilde">
          105 432 182 0 183 hstemhm
          122 1129 hintmask 00000000
          hintmask 01100000
          437 797 3 callsubr
        </CharString>
        <CharString name="asciitilde.case">
          -153 547 182 0 183 hstemhm
          -9 1129 hintmask 00000000
          hintmask 01100000
          306 912 3 callsubr
        </CharString>
        <CharString name="asciitilde.smcp">
          102 448 182 0 183 hstemhm
          119 1129 hintmask 00000000
          hintmask 01100000
          434 813 3 callsubr
        </CharString>
        <CharString name="asterisk">
          -279 1060 -20 22 -20 29 -20 23 -20 hstemhm
          392 199 -197 200 hintmask 00000000
          hintmask 01001000
          821 988 rmoveto
          -64 37 -106 8 -142 29 149 31 97 5 65 38 rrcurveto
          45 26 17 31 31 vvcurveto
          19 -6 18 -10 16 vhcurveto
          29 -15 -28 22 -38 hhcurveto
          -19 -22 -5 -14 -24 hvcurveto
          hintmask 00011000
          -63 -38 -61 -88 -97 -109 rrcurveto
          48 145 44 88 75 vvcurveto
          82 -49 29 -49 -49 -52 -29 -82 vhcurveto
          hintmask 00101000
          -75 48 -96 46 -140 vhcurveto
          -103 116 -54 82 -66 38 rrcurveto
          14 -24 -22 6 -19 hhcurveto
          -37 -26 -22 -28 -16 hvcurveto
          -10 -16 -6 -19 -19 vvcurveto
          hintmask 10000100
          -31 17 -32 44 -26 vhcurveto
          65 -37 106 -8 144 -29 -150 -31 -98 -6 -66 -38 rrcurveto
          -45 -26 -17 -31 -31 vvcurveto
          -18 6 -18 10 -16 vhcurveto
          -29 16 28 -22 38 hhcurveto
          19 21 5 14 24 hvcurveto
          64 38 60 87 98 110 rrcurveto
          -49 -146 -44 -87 -76 vvcurveto
          -82 50 -28 49 49 51 28 82 1 vhcurveto
          hintmask 00100100
          -1 75 -46 96 -46 139 101 -115 55 -81 65 -38 rrcurveto
          -14 25 22 -6 19 hhcurveto
          37 26 22 28 16 hvcurveto
          9 16 6 18 19 vvcurveto
          hintmask 01001000
          31 -16 33 -45 26 vhcurveto
          endchar
        </CharString>
        <CharString name="at">
          547 -330 239 callsubr
          352 37 hstemhm
          92 196 callgsubr
          hintmask 1101111110000000
          1138 53 -57 callsubr
          -23 -76 -97 -6 -86 hhcurveto
          -19 -93 rlineto
          171 callgsubr
          hvcurveto
          hintmask 1011111110000000
          184 callgsubr
          vhcurveto
          -7 -29 -5 -31 -30 vvcurveto
          hintmask 1101111110000000
          -75 33 -66 128 vhcurveto
          hintmask 1011111110000000
          47 callsubr
        </CharString>
        <CharString name="at.case">
          547 -219 239 callsubr
          -29 -20 401 37 hstemhm
          92 196 callgsubr
          hintmask 1101011111000000
          1138 164 -57 callsubr
          hintmask 1100111111000000
          -23 -76 -97 -6 -86 hhcurveto
          -19 -93 rlineto
          hintmask 1011011111000000
          171 callgsubr
          184 callgsubr
          hvcurveto
          -7 -29 -5 -31 -30 vvcurveto
          hintmask 1101011111000000
          -75 33 -66 128 vhcurveto
          hintmask 1011011111000000
          47 callsubr
        </CharString>
        <CharString name="at.smcp">
          537 -330 239 callsubr
          352 37 hstemhm
          85 196 callgsubr
          hintmask 1101111110000000
          1131 53 -57 callsubr
          -23 -76 -97 -6 -86 hhcurveto
          -19 -93 rlineto
          171 callgsubr
          hvcurveto
          hintmask 1011111110000000
          184 callgsubr
          vhcurveto
          -7 -29 -5 -31 -30 vvcurveto
          hintmask 1101111110000000
          -75 33 -66 128 vhcurveto
          hintmask 1011111110000000
          47 callsubr
        </CharString>
        <CharString name="atilde">
          27 callgsubr
          196 191 -54 189 50 callsubr
          hintmask 0000000000000000
          hintmask 0011010010000000
          367 25 callsubr
          hintmask 0011100010000000
          13 callgsubr
          hintmask 0011010010000000
          161 callgsubr
          hintmask 0011100110000000
          171 -522 rmoveto
          -85 callsubr
          hintmask 0011101010000000
          -190 -70 -98 -83 -148 vvcurveto
          -149 106 -84 153 115 117 51 115 70 vhcurveto
          -88 1 46 -78 150 hhcurveto
          hintmask 1001100010000000
          104 68 25 50 62 hvcurveto
          -21 35 rlineto
          -18 -23 -23 -17 -29 hhcurveto
          -33 -11 25 66 hvcurveto
          557 vlineto
          143 -13 82 -60 62 vhcurveto
          hintmask 0011100110000000
          68 -66 -102 24 -132 hhcurveto
          hintmask 0101101010000000
          78 -888 rmoveto
          -61 -43 -45 -22 -50 hhcurveto
          -73 -55 46 113 123 67 67 72 53 hvcurveto
          69 43 39 27 19 31 rrcurveto
          endchar
        </CharString>
        <CharString name="atilde.smcp">
          66 callgsubr
          193 120 callsubr
          -23 1323 hintmask 11101110
          386 1567 rmoveto
          160 78 -145 193 hhcurveto
          hintmask 11110010
          48 callgsubr
          160 callgsubr
          hintmask 11101110
          -123 -106 -87 -188 -45 hvcurveto
          31 -13 rlineto
          82 47 59 32 71 hhcurveto
          298 -318 -106 callgsubr
        </CharString>
        <CharString name="b">
          -63 -29 44 -27 -21 39 -21 1015 88 449 37 hstemhm
          143 295 375 309 hintmask 10011110
          752 273 callsubr
          710 76 callgsubr
          -122 hvcurveto
          -1257 vlineto
          hintmask 00111110
          -39 -3 -39 -11 -37 vhcurveto
          hintmask 01011110
          31 -18 rlineto
          hintmask 10011110
          44 48 93 32 90 hhcurveto
          11 11 0 -1 11 hvcurveto
          -51 63 79 -20 87 67 callsubr
        </CharString>
        <CharString name="b.smcp">
          -33 callsubr
        </CharString>
        <CharString name="backslash">
          -509 -8 -21 1508 -20 hstem
          63 625 vstem
          131 234 callgsubr
          -68 hlineto
          557 -1508 rlineto
          68 hlineto
          endchar
        </CharString>
        <CharString name="bar">
          -744 -378 -21 hstem
          169 180 vstem
          349 -399 rmoveto
          2156 -180 -2156 vlineto
          endchar
        </CharString>
        <CharString name="blacksquare">
          -100 104 852 hstem
          175 813 269 callgsubr
          endchar
        </CharString>
        <CharString name="blacksquare.case">
          -79 303 852 hstem
          165 854 vstem
          1019 303 rmoveto
          852 -854 -852 vlineto
          endchar
        </CharString>
        <CharString name="blacksquare.smcp">
          -27 197 852 hstem
          191 854 vstem
          1045 197 rmoveto
          852 -854 -852 vlineto
          endchar
        </CharString>
        <CharString name="braceleft">
          270 callsubr
          202 294 vstem
          648 268 callsubr
          -329 -117 -113 -361 -385 -31 -104 300 callgsubr
          -10 31 -105 -383 vvcurveto
          -377 117 -104 329 vhcurveto
          39 vlineto
          -123 2 -29 37 403 vvcurveto
          367 -194 104 -209 45 vhcurveto
          209 45 194 103 368 vvcurveto
          388 29 43 123 4 vhcurveto
          endchar
        </CharString>
        <CharString name="braceleft.case">
          269 callsubr
          206 301 vstem
          621 268 callsubr
          -303 -112 -107 -293 -352 -31 -96 -125 -9 hvcurveto
          -10 -36 10 hlineto
          125 -11 31 -96 -350 vvcurveto
          -311 112 -93 303 vhcurveto
          39 vlineto
          -93 2 -21 33 330 vvcurveto
          338 -169 96 -241 41 vhcurveto
          241 41 169 94 340 vvcurveto
          314 21 43 93 4 vhcurveto
          endchar
        </CharString>
        <CharString name="braceleft.smcp">
          271 callsubr
          215 295 vstem
          662 1364 rmoveto
          -329 -118 -90 -248 -303 -30 -70 300 callgsubr
          -8 30 -70 -303 vvcurveto
          -252 118 -94 329 vhcurveto
          39 vlineto
          -123 4 -29 41 262 vvcurveto
          297 -194 68 -209 35 vhcurveto
          209 35 194 67 297 vvcurveto
          258 29 37 123 4 vhcurveto
          endchar
        </CharString>
        <CharString name="braceright">
          270 callsubr
          187 294 vstem
          35 1563 rmoveto
          123 -4 29 -43 -388 vvcurveto
          -368 194 -103 209 -45 vhcurveto
          -209 -45 -194 -104 -367 vvcurveto
          -403 -29 -37 -123 -2 vhcurveto
          -39 vlineto
          329 117 104 377 383 31 105 125 10 hvcurveto
          10 37 -10 hlineto
          -125 8 -31 104 385 vvcurveto
          361 -117 113 -329 vhcurveto
          endchar
        </CharString>
        <CharString name="braceright.case">
          269 callsubr
          170 301 vstem
          56 1563 rmoveto
          93 -4 21 -43 -314 vvcurveto
          -340 169 -94 241 -41 vhcurveto
          -241 -41 -169 -96 -338 vvcurveto
          -330 -21 -33 -93 -2 vhcurveto
          -39 vlineto
          303 112 93 311 350 31 96 125 11 hvcurveto
          10 36 -10 hlineto
          -125 9 -31 96 352 vvcurveto
          293 -112 107 -303 vhcurveto
          endchar
        </CharString>
        <CharString name="braceright.smcp">
          271 callsubr
          207 295 vstem
          55 1325 rmoveto
          123 -4 29 -37 -258 vvcurveto
          -297 194 -67 209 -35 vhcurveto
          -209 -35 -194 -68 -297 vvcurveto
          -262 -29 -41 -123 -4 vhcurveto
          -39 vlineto
          329 118 94 252 303 30 70 125 8 hvcurveto
          10 37 -10 hlineto
          -125 8 -30 70 303 vvcurveto
          248 -118 90 -329 vhcurveto
          endchar
        </CharString>
        <CharString name="bracketleft">
          302 callgsubr
          171 295 vstem
          583 1542 rmoveto
          39 -412 -1952 412 39 -117 1874 vlineto
          endchar
        </CharString>
        <CharString name="bracketleft.case">
          302 callsubr
          175 301 vstem
          593 1542 rmoveto
          39 -418 -1712 418 39 -117 1634 vlineto
          endchar
        </CharString>
        <CharString name="bracketleft.smcp">
          303 callgsubr
          186 294 vstem
          597 1317 rmoveto
          39 -411 -1467 411 39 -117 1389 vlineto
          endchar
        </CharString>
        <CharString name="bracketright">
          302 callgsubr
          194 295 vstem
          489 1581 rmoveto
          -412 -39 117 -1874 -117 -39 412 hlineto
          endchar
        </CharString>
        <CharString name="bracketright.case">
          302 callsubr
          197 301 vstem
          498 1581 rmoveto
          -418 -39 117 -1634 -117 -39 418 hlineto
          endchar
        </CharString>
        <CharString name="bracketright.smcp">
          303 callgsubr
          207 294 vstem
          501 1356 rmoveto
          -411 -39 117 -1389 -117 -39 411 hlineto
          endchar
        </CharString>
        <CharString name="breve">
          -386 1272 194 hstem
          47 782 vstem
          795 -23 callsubr
          endchar
        </CharString>
        <CharString name="breve.case">
          -345 1578 173 hstem
          -10 913 vstem
          879 -24 callgsubr
          endchar
        </CharString>
        <CharString name="breve.smcp">
          -345 1400 172 hstem
          10 897 vstem
          883 -24 callsubr
          endchar
        </CharString>
        <CharString name="brevecy">
          -323 1247 41 hstem
          41 302 254 302 vstem
          749 1631 rmoveto
          -87 -65 -61 -90 -72 44 -51 66 -20 hvcurveto
          -37 -67 -101 -12 -70 hhcurveto
          -71 -100 12 36 -68 hvcurveto
          66 20 47 51 73 vvcurveto
          90 -67 61 -85 -90 -60 -62 -88 -70 47 -57 60 -35 vhcurveto
          -42 71 107 -30 143 hhcurveto
          143 106 30 42 71 hvcurveto
          60 35 50 57 70 vvcurveto
          88 -62 62 -88 vhcurveto
          endchar
        </CharString>
        <CharString name="brevecy.case">
          -216 1577 41 hstem
          41 219 callgsubr
          vstem
          843 1936 rmoveto
          -95 -69 -57 -80 -69 49 -45 74 -18 hvcurveto
          -37 -79 -118 -12 -82 hhcurveto
          -84 -118 12 36 -79 hvcurveto
          69 16 57 44 73 vvcurveto
          81 -71 56 -95 -96 -65 -59 -77 -67 49 -48 71 -36 vhcurveto
          -40 114 callsubr
          40 78 hvcurveto
          73 37 162 callsubr
          vhcurveto
          endchar
        </CharString>
        <CharString name="brevecy.smcp">
          -216 1407 41 hstem
          41 219 callgsubr
          vstem
          843 1766 rmoveto
          -95 -69 -57 -81 -68 49 -46 74 -17 hvcurveto
          72 callsubr
          -67 49 -49 71 -36 vhcurveto
          -39 114 callsubr
          39 78 hvcurveto
          304 callsubr
          vhcurveto
          endchar
        </CharString>
        <CharString name="brokenbar">
          -738 -378 -21 hstem
          172 181 vstem
          353 786 rmoveto
          971 -181 -971 vlineto
          181 -1185 rmoveto
          1067 -181 -1067 vlineto
          endchar
        </CharString>
        <CharString name="bullet">
          -269 207 690 hstem
          152 690 vstem
          496 897 47 callgsubr
        </CharString>
        <CharString name="bullet.case">
          -271 1074 -20 hstem
          151 690 vstem
          495 1074 47 callgsubr
        </CharString>
        <CharString name="bullet.smcp">
          -298 292 690 hstem
          137 690 vstem
          481 982 47 callgsubr
        </CharString>
        <CharString name="c">
          98 callgsubr
          581 1088 rmoveto
          -92 callgsubr
          169 callsubr
          endchar
        </CharString>
        <CharString name="c.smcp">
          21 callsubr
          744 1274 -99 callgsubr
        </CharString>
        <CharString name="cacute">
          -247 -29 169 898 50 157 -20 hstem
          75 309 247 320 vstem
          772 -93 callsubr
          -191 -586 rmoveto
          -92 callgsubr
          169 callsubr
          endchar
        </CharString>
        <CharString name="cacute.loclPLK">
          98 callgsubr
          712 -59 callsubr
          -131 -595 rmoveto
          -92 callgsubr
          169 callsubr
          endchar
        </CharString>
        <CharString name="cacute.loclPLK.smcp">
          21 callsubr
          825 -55 callsubr
          -81 -558 -99 callgsubr
        </CharString>
        <CharString name="cacute.smcp">
          21 callsubr
          873 -92 callsubr
          -129 -470 -99 callgsubr
        </CharString>
        <CharString name="caron">
          -440 1249 430 hstem
          27 770 vstem
          780 -58 callgsubr
          endchar
        </CharString>
        <CharString name="caron.case">
          -399 1572 349 hstem
          -6 876 vstem
          860 -58 callsubr
          endchar
        </CharString>
        <CharString name="caron.smcp">
          -399 1383 350 hstem
          2 860 vstem
          852 -72 callgsubr
          endchar
        </CharString>
        <CharString name="ccaron">
          98 callgsubr
          896 -58 callgsubr
          -332 -563 rmoveto
          -92 callgsubr
          169 callsubr
          endchar
        </CharString>
        <CharString name="ccaron.smcp">
          21 callsubr
          1139 -72 callgsubr
          -405 -429 -99 callgsubr
        </CharString>
        <CharString name="ccedilla">
          -247 173 callsubr
          86 80 169 -143 -21 1062 50 hstemhm
          75 309 181 215 -149 320 hintmask 10101101
          552 -29 rmoveto
          234 126 170 153 47 hvcurveto
          -36 13 rlineto
          -137 -83 -109 -30 -76 hhcurveto
          -135 -136 95 318 278 89 207 170 54 48 -21 -28 21 hvcurveto
          -73 -20 -62 -62 -86 vvcurveto
          -92 61 -60 97 94 68 68 97 81 -44 68 -69 42 vhcurveto
          169 callsubr
          -290 -216 281 callgsubr
          hvcurveto
          hintmask 11011110
          -344 169 -172 227 -32 vhcurveto
          -55 -185 rlineto
          18 callsubr
          65 -49 44 -92 -55 -47 -8 -16 -44 hvcurveto
          hintmask 10101101
          33 105 rlineto
          endchar
        </CharString>
        <CharString name="ccedilla.smcp">
          83 173 callsubr
          86 80 54 -53 53 -4 -21 1221 281 callsubr
          87 328 412 215 129 47 -25 39 hintmask 1010010101000000
          1185 451 rmoveto
          -21 -146 -18 -67 -55 -70 rrcurveto
          -92 -73 -109 -51 -107 hhcurveto
          -216 -171 207 386 376 146 227 227 107 99 -55 -89 74 hvcurveto
          55 -65 19 -47 29 -150 rrcurveto
          47 hlineto
          hintmask 1010001101000000
          217 297 callsubr
          92 9 callgsubr
          -83 -7 -17 -41 -28 hhcurveto
          -11 -14 7 13 -15 hvcurveto
          hintmask 1101010111000000
          69 -82 -86 64 -175 hhcurveto
          -373 -284 -266 -398 -393 255 -230 365 -15 hvcurveto
          -54 -181 rlineto
          -76 callgsubr
          hintmask 1010010100100000
          32 104 157 4 98 60 83 69 rlinecurve
          13 16 13 7 12 hhcurveto
          hintmask 1000110100100000
          28 16 -41 -83 7 hvcurveto
          47 hlineto
          -6 96 -2 127 228 vvcurveto
          endchar
        </CharString>
        <CharString name="ccircumflex">
          -247 -29 169 898 50 190 -20 hstem
          75 309 247 320 vstem
          529 -78 callgsubr
          15 -591 rmoveto
          -92 callgsubr
          169 callsubr
          endchar
        </CharString>
        <CharString name="ccircumflex.smcp">
          21 callsubr
          705 -83 callsubr
          2 -475 -99 callgsubr
        </CharString>
        <CharString name="cdotaccent">
          -247 -29 169 898 50 hstemhm
          75 309 -11 373 -115 320 hintmask 00000000
          hintmask 11010000
          560 1588 rmoveto
          -29 callsubr
          21 -500 rmoveto
          hintmask 11101000
          -92 callgsubr
          hintmask 11010000
          169 callsubr
          endchar
        </CharString>
        <CharString name="cdotaccent.smcp">
          83 -29 54 -4 -21 1221 281 callsubr
          87 328 129 348 279 47 -25 39 hintmask 10101110
          718 38 callsubr
          26 -470 rmoveto
          -373 -284 176 callsubr
          273 -232 387 hvcurveto
          hintmask 10101101
          166 102 62 71 86 hvcurveto
          13 16 13 7 12 hhcurveto
          hintmask 01101101
          28 16 -41 -83 7 hvcurveto
          47 hlineto
          -6 96 -2 127 228 vvcurveto
          -47 hlineto
          -21 -146 -18 -67 -55 -70 rrcurveto
          hintmask 10101110
          -92 -73 -109 -51 -107 hhcurveto
          -216 -171 207 386 376 146 227 227 107 99 -55 -89 74 hvcurveto
          55 -65 19 -47 29 -150 rrcurveto
          47 hlineto
          hintmask 10011110
          217 297 callsubr
          92 9 callgsubr
          -83 -7 -17 -41 -28 hhcurveto
          -11 -14 7 13 -15 hvcurveto
          hintmask 10101110
          69 -82 -86 64 -175 hhcurveto
          endchar
        </CharString>
        <CharString name="cedilla">
          -796 173 callsubr
          200 hstem
          244 215 vstem
          215 5 rmoveto
          -56 hlineto
          -64 -214 rlineto
          18 callsubr
          65 -49 44 -92 -55 -47 -8 -16 -44 hvcurveto
          endchar
        </CharString>
        <CharString name="cedilla.case">
          -759 173 callsubr
          205 hstem
          274 215 vstem
          223 10 rmoveto
          -55 hlineto
          -68 -219 rlineto
          -76 callgsubr
          endchar
        </CharString>
        <CharString name="cedilla.smcp">
          -796 173 callsubr
          205 hstem
          274 215 vstem
          222 10 rmoveto
          -56 hlineto
          -66 -219 rlineto
          -76 callgsubr
          endchar
        </CharString>
        <CharString name="cent">
          -242 -350 -21 342 169 -148 -21 22 -21 1066 50 362 -20 hstemhm
          66 309 142 45 60 320 hintmask 1001111100000000
          914 307 rmoveto
          hintmask 1100111110000000
          -137 -83 -109 -30 -76 hhcurveto
          -28 -29 4 10 -27 hvcurveto
          870 vlineto
          9 22 24 5 26 hhcurveto
          54 48 -21 -28 21 hvcurveto
          -73 -20 -62 -62 -86 vvcurveto
          -92 61 -60 97 94 68 68 97 81 -44 68 -69 42 vhcurveto
          169 callsubr
          -10 362 -45 -364 hlineto
          -262 -24 -189 -192 -346 vvcurveto
          hintmask 1001111100000000
          -371 196 -171 255 -10 vhcurveto
          -343 45 vlineto
          hintmask 1010111100000000
          342 vlineto
          222 9 120 165 46 149 rrcurveto
          -575 259 rmoveto
          205 48 166 94 74 vhcurveto
          -822 vlineto
          -81 51 -61 113 213 vvcurveto
          endchar
        </CharString>
        <CharString name="cent.smcp">
          -87 94 49 919 -20 60 49 303 -20 hstem
          64 315 229 41 369 39 vstem
          1010 492 rmoveto
          -20 -136 -18 -62 -56 -65 rrcurveto
          -59 -56 -92 -27 -84 hhcurveto
          -12 -12 1 1 -11 hvcurveto
          956 vlineto
          21 1 rlineto
          84 85 -30 -56 54 hvcurveto
          54 -61 20 -44 29 -137 rrcurveto
          47 hlineto
          187 2 102 6 80 9 callgsubr
          -53 -7 -20 -28 -29 hhcurveto
          -11 -12 3 8 -13 hvcurveto
          -64 37 -76 38 -123 3 rrcurveto
          303 -41 -303 vlineto
          -309 -11 -235 -203 -327 vvcurveto
          -338 224 -170 320 -8 vhcurveto
          -303 41 303 vlineto
          128 3 77 38 72 39 rrcurveto
          8 14 13 3 10 hhcurveto
          31 17 -30 -53 7 hvcurveto
          47 hlineto
          -6 84 -2 109 197 vvcurveto
          -678 126 rmoveto
          265 87 173 142 38 vhcurveto
          -939 vlineto
          -133 43 -96 160 260 vvcurveto
          endchar
        </CharString>
        <CharString name="circumflex">
          -440 1278 -20 hstem
          27 770 vstem
          393 -78 callgsubr
          endchar
        </CharString>
        <CharString name="circumflex.case">
          -399 1576 349 hstem
          -6 876 vstem
          414 1925 -84 callsubr
          endchar
        </CharString>
        <CharString name="circumflex.smcp">
          -399 1400 349 hstem
          2 860 vstem
          414 -83 callsubr
          endchar
        </CharString>
        <CharString name="colon">
          -669 -8 -21 1117 -20 hstem
          122 349 vstem
          296 1088 rmoveto
          -80 callgsubr
          -800 vmoveto
          134 callgsubr
        </CharString>
        <CharString name="comma">
          -708 -8 -21 hstem
          386 73 vstem
          269 288 -56 callsubr
          endchar
        </CharString>
        <CharString name="commaaccentcomb">
          -1263 -353 -21 hstem
          299 77 vstem
          209 -112 -89 callgsubr
          98 -70 60 -97 vhcurveto
          endchar
        </CharString>
        <CharString name="commaaccentcomb.case">
          -1263 -354 -21 hstem
          54 322 vstem
          209 -113 -69 callsubr
        </CharString>
        <CharString name="commaaccentcomb.smcp">
          -833 -353 -21 hstem
          299 77 vstem
          209 -112 -89 callgsubr
          100 -70 58 -97 vhcurveto
          endchar
        </CharString>
        <CharString name="copyright">
          541 -29 66 192 132 885 -20 73 47 190 66 hstem
          87 82 271 310 247 319 319 82 vstem
          902 268 callsubr
          -451 -364 -365 -451 -450 364 -365 451 450 365 365 450 451 -365 365 -450 hvcurveto
          -66 vmoveto
          405 328 -336 -414 -413 -328 -336 -405 -406 -327 336 413 414 327 336 406 hvcurveto
          46 -190 rmoveto
          -292 -216 281 callgsubr
          -384 211 -169 267 233 127 170 153 47 hvcurveto
          -36 13 rlineto
          -171 -83 -109 -33 -77 hhcurveto
          -134 -136 104 344 291 52 117 79 45 hvcurveto
          27 34 37 10 36 hhcurveto
          60 59 -23 -30 25 hvcurveto
          -74 -18 -61 -62 -84 vvcurveto
          -93 61 -62 97 93 68 68 97 82 -43 65 -65 41 vhcurveto
          38 -58 -94 28 -108 hhcurveto
          endchar
        </CharString>
        <CharString name="currency">
          -3 170 190 511 190 hstem
          184 211 473 208 vstem
          1140 949 -6 callgsubr
        </CharString>
        <CharString name="currency.smcp">
          -22 186 190 511 190 hstem
          173 211 473 208 vstem
          1129 965 -6 callgsubr
        </CharString>
        <CharString name="d">
          196 callsubr
          450 37 264 callgsubr
          hintmask 10001111
          1056 1603 rmoveto
          111 callgsubr
          -346 58 callsubr
          hintmask 01001111
          -173 vlineto
          hintmask 00011111
          20 86 99 8 114 hhcurveto
          41 43 -2 -4 43 hvcurveto
          hintmask 00101111
          55 callsubr
          hintmask 10001111
          37 callgsubr
        </CharString>
        <CharString name="d.smcp">
          212 callsubr
          691 1245 16 callgsubr
        </CharString>
        <CharString name="dagger">
          -496 1253 93 hstemhm
          308 151 -111.429992676 71.8300018311 hintmask 10100000
          383 232 callgsubr
          17 hlineto
          28 49 -41 262 45 hhcurveto
          33 -10 60 -52 vhcurveto
          318 -414 123 callgsubr
          hintmask 11000000
          307 callsubr
          -34 -23 rlinecurve
          -219 10 -770 65 -118 vhcurveto
          64 118 12 770 219 vvcurveto
          -35 23 0 39 -12 41 rrcurveto
          endchar
        </CharString>
        <CharString name="daggerdbl">
          -477 -340 92 1501 93 hstemhm
          317 152 -111.429992676 71.5500030518 hintmask 11010000
          393 232 callgsubr
          16 hlineto
          28 50 -41 262 45 hhcurveto
          33 -11 60 -51 vhcurveto
          318 -414 123 callgsubr
          hintmask 11100000
          307 callsubr
          -35 -23 rlinecurve
          0 -96 2 23 9 -207 -9 -207 -2 12 -96 flex1
          35 -22 -2 -39 15 -41 28 -13 rcurveline
          29 13 12 41 0 39 35 22 rlinecurve
          0 96 -2 -12 -8 207 8 209 2 -25 96 flex1
          -35 23 0 39 -12 41 rrcurveto
          289 -817 123 callgsubr
          hintmask 11010000
          -248 20 rmoveto
          -29 -49 41 -262 -45 hhcurveto
          -33 10 -59 51 51 11 59 33 vhcurveto
          -45 41 262 29 -50 hvcurveto
          endchar
        </CharString>
        <CharString name="dcaron">
          196 callsubr
          450 37 -35 42 264 callgsubr
          140 186 hintmask 1000110110000000
          1183 1153 rmoveto
          hintmask 1000101111000000
          121 176 78 113 80 vvcurveto
          24 -4 45 -6 15 vhcurveto
          -13 -49 -46 -11 -75 hhcurveto
          -14 -16 0 1 -17 hvcurveto
          -43 vlineto
          34 7 -29 -53 -37 -9 -75 -32 -185 hvcurveto
          hintmask 1000110110000000
          -99 442 rmoveto
          111 callgsubr
          -346 58 callsubr
          hintmask 0100110110000000
          -173 vlineto
          hintmask 0001110110000000
          20 86 99 8 114 hhcurveto
          41 43 -2 -4 43 hvcurveto
          hintmask 0010110110000000
          55 callsubr
          hintmask 1000110110000000
          37 callgsubr
        </CharString>
        <CharString name="dcaron.smcp">
          212 callsubr
          1109 -72 callgsubr
          -428 -458 16 callgsubr
        </CharString>
        <CharString name="dcroat">
          196 callsubr
          157 41 252 37 264 callgsubr
          hintmask 1000111110000000
          1056 1245 rmoveto
          152 41 -152 317 hlineto
          111 callgsubr
          -71 -340 -41 340 -234 58 callsubr
          hintmask 0100111110000000
          -173 vlineto
          hintmask 0001111110000000
          20 86 99 8 114 hhcurveto
          41 43 -2 -4 43 hvcurveto
          hintmask 0010111110000000
          55 callsubr
          hintmask 1000111110000000
          37 callgsubr
        </CharString>
        <CharString name="dcroat.smcp">
          -14 callgsubr
        </CharString>
        <CharString name="degree">
          -625 1186 35 424 34 hstem
          70 51 396 51 vstem
          318 1679 rmoveto
          -131 -117 -94 -151 -154 117 -94 131 133 117 94 154 151 -117 94 -133 hvcurveto
          -34 vmoveto
          92 107 -74 -139 -144 -107 -67 -92 -92 -105 67 144 139 105 74 92 hvcurveto
          endchar
        </CharString>
        <CharString name="dieresis">
          -464 1248 309 hstem
          12 178 callsubr
          vstem
          166 1557 rmoveto
          -34 callgsubr
          466 hmoveto
          -34 callgsubr
          endchar
        </CharString>
        <CharString name="dieresis.case">
          -489 1569 309 hstem
          -13 130 callgsubr
          vstem
          142 -19 callgsubr
          endchar
        </CharString>
        <CharString name="dieresis.smcp">
          -489 1432 308 hstem
          -13 130 callgsubr
          vstem
          142 -20 callgsubr
          endchar
        </CharString>
        <CharString name="divide">
          34 317 228 151 62 151 226 hstem
          537 228 vstem
          650 1135 rmoveto
          -61 -52 -52 -61 -64 52 -49 61 64 51 49 64 61 -51 52 -64 hvcurveto
          514 -439 242 callsubr
          512 -151 rmoveto
          -61 -52 -51 -62 -63 52 -52 61 64 51 52 63 62 -51 51 -64 hvcurveto
          endchar
        </CharString>
        <CharString name="dollar">
          -87 -29 46 -20 -21 24 -21 23 -21 26 -21 1445 45 -18 -20 22 -20 28 -20 23 -20 hstemhm
          112 247 124 41 158 41 140 238 -116 47 hintmask 0000000000000000
          hintmask 1000010000111100
          1101 370 rmoveto
          222 -149 115 -197 125 vhcurveto
          -32 21 rlineto
          561 vlineto
          161 -51 65 -162 25 -210 rrcurveto
          48 hlineto
          hintmask 1000001000111010
          288 4 98 6 81 9 callgsubr
          hintmask 1000000100111010
          -59 -9 -10 -31 -26 hhcurveto
          -19 -18 9 20 -33 hvcurveto
          -39 23 -44 25 -64 15 rrcurveto
          260 -41 vlineto
          hintmask 1000000010111010
          -252 vlineto
          hintmask 1000010000111010
          5 -32 -36 3 -43 hhcurveto
          -16 -15 -1 -1 -16 hvcurveto
          246 -41 vlineto
          hintmask 0000100001111010
          -249 vlineto
          -203 -26 -168 -117 -226 vvcurveto
          -228 170 -120 195 -124 vhcurveto
          6 -4 rlineto
          -601 vlineto
          -211 35 -89 156 -26 323 rrcurveto
          -47 hlineto
          -326 -2 -131 -6 -96 vhcurveto
          47 hlineto
          hintmask 0010010000111010
          59 8 11 31 26 hhcurveto
          24 27 -12 -18 36 hvcurveto
          43 -21 59 -32 100 -14 rrcurveto
          -249 41 vlineto
          hintmask 0100010000111010
          244 vlineto
          hintmask 1000010000111010
          -2 22 23 -1 25 hhcurveto
          30 29 2 3 29 hvcurveto
          -246 41 vlineto
          hintmask 0001010000111010
          251 vlineto
          hintmask 1000010000111100
          214 35 164 128 226 vvcurveto
          -497 1061 rmoveto
          28 26 -2 -5 24 hvcurveto
          -544 vlineto
          -64 42 -52 36 -42 32 rrcurveto
          434 vlineto
          4 24 27 3 29 hhcurveto
          -245 -192 rmoveto
          79 41 64 83 30 vhcurveto
          -389 vlineto
          -99 83 -25 55 78 vvcurveto
          228 -1222 rmoveto
          -22 -21 1 2 -20 hvcurveto
          578 vlineto
          64 -44 52 -37 42 -32 rrcurveto
          -460 vlineto
          -5 -28 -32 -3 -35 hhcurveto
          136 436 rmoveto
          115 -93 25 -54 -78 vvcurveto
          -94 -45 -68 -95 -30 vhcurveto
          endchar
        </CharString>
        <CharString name="dollar.smcp">
          -89 -27 45 -20 -21 22 -21 29 -21 1243 45 -14 -20 24 -20 25 -20 21 -20 204 -20 hstemhm
          113 47 -45 227 147 41 132 40 132 256 -102 47 hintmask 0000000000000000
          hintmask 1000100001101110
          1090 329 rmoveto
          217 -188 113 -168 93 vhcurveto
          -32 17 rlineto
          446 vlineto
          161 -41 88 -129 26 -211 rrcurveto
          47 hlineto
          hintmask 1000010001101101
          262 5 90 6 74 9 callgsubr
          hintmask 1000001001101101
          -57 -9 -9 -34 -29 hhcurveto
          -17 -18 10 19 -33 hvcurveto
          -43 25 -51 26 -77 15 rrcurveto
          190 -40 vlineto
          hintmask 1000000101101101
          -185 vlineto
          hintmask 1000100001101101
          3 -26 -29 2 -32 hhcurveto
          -15 -15 0 -1 -15 hvcurveto
          181 -41 vlineto
          hintmask 1000000011011101
          -184 vlineto
          -212 -23 -162 -109 -201 vvcurveto
          -229 211 -124 163 -88 vhcurveto
          -469 vlineto
          hintmask 0001100001101101
          -207 36 -100 155 -22 267 rrcurveto
          -47 hlineto
          -293 -2 -121 -6 -85 vhcurveto
          47 hlineto
          hintmask 0010100001101101
          59 8 10 31 28 hhcurveto
          15 21 -8 -17 34 hvcurveto
          76 -35 60 -26 85 -12 rrcurveto
          -187 41 vlineto
          hintmask 1000100001101101
          182 vlineto
          20 -1 22 -1 24 22 22 1 22 hflex1
          -182 40 vlineto
          hintmask 0100100001101101
          186 vlineto
          hintmask 1000100001101110
          226 27 162 115 210 vvcurveto
          hintmask 1000100001011110
          -508 900 rmoveto
          28 27 -2 -4 25 hvcurveto
          -432 vlineto
          -50 28 -44 24 -38 22 rrcurveto
          362 vlineto
          1 16 18 1 18 hhcurveto
          -240 -151 rmoveto
          72 51 51 96 20 vhcurveto
          -332 vlineto
          -103 65 -44 48 76 vvcurveto
          252 -1060 rmoveto
          -22 -22 1 2 -20 hvcurveto
          454 vlineto
          51 -27 44 -23 37 -22 rrcurveto
          -380 vlineto
          -3 -22 -23 -2 -23 hhcurveto
          108 361 rmoveto
          92 -59 40 -51 -81 vvcurveto
          -82 -56 -51 -76 -22 vhcurveto
          endchar
        </CharString>
        <CharString name="dotaccent">
          -857 1271 317 hstem
          16 373 vstem
          203 1588 rmoveto
          -29 callsubr
          endchar
        </CharString>
        <CharString name="dotaccent.case">
          -857 1566 317 hstem
          26 348 vstem
          200 112 callsubr
          endchar
        </CharString>
        <CharString name="dotaccent.smcp">
          -857 1428 316 hstem
          26 348 vstem
          200 38 callsubr
          endchar
        </CharString>
        <CharString name="dotlessi">
          147 callgsubr
          181 295 hintmask 10011000
          476 1082 rmoveto
          hintmask 10101000
          -60 callgsubr
          hintmask 11011000
          -90 callsubr
        </CharString>
        <CharString name="dotlessj">
          -655 -385 37 1365 70 callsubr
          hstemhm
          -259 316 114 295 hintmask 10010100
          466 1082 rmoveto
          hintmask 10100100
          262 callgsubr
          hintmask 11011100
          -50 callgsubr
        </CharString>
        <CharString name="e">
          34 callsubr
          100 callsubr
          652 140 -98 callsubr
        </CharString>
        <CharString name="e.smcp">
          35 callgsubr
          57 callgsubr
          hintmask 11101000
          1139 266 4 callsubr
          hintmask 11011000
          -97 callsubr
          hintmask 11101000
          60 callsubr
          endchar
        </CharString>
        <CharString name="eacute">
          34 callsubr
          157 -20 100 callsubr
          794 -37 callsubr
          -142 -1371 -98 callsubr
        </CharString>
        <CharString name="eacute.smcp">
          35 callgsubr
          57 callgsubr
          hintmask 11101000
          882 -59 callgsubr
          257 -1283 4 callsubr
          hintmask 11011000
          -97 callsubr
          hintmask 11101000
          60 callsubr
          endchar
        </CharString>
        <CharString name="ebreve">
          34 callsubr
          184 194 100 callsubr
          563 95 callgsubr
          89 -1132 -98 callsubr
        </CharString>
        <CharString name="ebreve.smcp">
          35 callgsubr
          155 172 57 callgsubr
          hintmask 11101100
          619 93 callgsubr
          520 -1134 4 callsubr
          hintmask 11011100
          -97 callsubr
          hintmask 11101100
          60 callsubr
          endchar
        </CharString>
        <CharString name="ecaron">
          34 callsubr
          100 callsubr
          563 1249 rmoveto
          75 153 136 157 156 92 -17 28 rcurveline
          -124 -37 -129 -62 -74 -56 -91 56 -162 62 -157 37 -16 -28 rcurveline
          156 -93 138 -157 72 -152 rrcurveto
          126 -1109 -98 callsubr
        </CharString>
        <CharString name="ecaron.smcp">
          35 callgsubr
          57 callgsubr
          hintmask 11101000
          638 90 callgsubr
          538 -1117 4 callsubr
          hintmask 11011000
          -97 callsubr
          hintmask 11101000
          60 callsubr
          endchar
        </CharString>
        <CharString name="ecircumflex">
          34 callsubr
          190 -20 100 callsubr
          524 22 callgsubr
          128 -1265 -98 callsubr
        </CharString>
        <CharString name="ecircumflex.smcp">
          35 callgsubr
          57 callgsubr
          hintmask 11101000
          582 -14 callsubr
          557 -1266 4 callsubr
          hintmask 11011000
          -97 callsubr
          hintmask 11101000
          60 callsubr
          endchar
        </CharString>
        <CharString name="edieresis">
          -30 callgsubr
        </CharString>
</ttFont>
